<svg id="Capa_1" enable-background="new 0 0 512 512" height="512" viewBox="0 0 512 512" width="512" xmlns="http://www.w3.org/2000/svg" xmlns:xlink="http://www.w3.org/1999/xlink"><linearGradient id="SVGID_1_" gradientUnits="userSpaceOnUse" x1="34.924" x2="481.472" y1="104.428" y2="447.926"><stop offset="0" stop-color="#ffdbed"/><stop offset="1" stop-color="#dcfdee"/></linearGradient><g><path d="m408.228 154.265c-23.697-9.236-43.717-26.089-55.961-48.381-20.59-37.487-60.43-62.898-106.221-62.898-47.53 0-88.646 27.377-108.477 67.219-12.146 24.401-32.814 43.56-58.09 53.761-37.348 15.075-68.702 49.525-78.652 103.383-1.092 5.91-1.108 11.986-.016 17.896 15.448 83.572 82.399 120.435 143.334 110.66 34.126-5.474 68.672 5.909 93.967 29.462 51.434 47.892 133.884 62.907 213.923 11.57 9.377-6.014 21.957-18.634 27.966-28.015 68.966-107.671 17.878-219.715-71.773-254.657z" fill="url(#SVGID_1_)"/><path d="m456 102.089v254.25c0 8.28-6.72 15-15 15h-370c-8.28 0-15-6.72-15-15v-254.25c0-8.28 6.72-15 15-15h370c8.28 0 15 6.72 15 15z" fill="#2626bc" opacity=".1"/><path d="m350.982 443.379c-1.28 0-2.559-.488-3.536-1.464l-11.018-11.018c-1.953-1.953-1.953-5.119 0-7.071l11.018-11.018c1.953-1.952 5.118-1.952 7.071 0l11.018 11.018c1.953 1.953 1.953 5.119 0 7.071l-11.018 11.018c-.976.977-2.255 1.464-3.535 1.464zm-3.947-16.017 3.947 3.947 3.947-3.947-3.947-3.947z" fill="#6583fe"/><path d="m400.418 456.415c-1.28 0-2.559-.488-3.536-1.464l-11.018-11.018c-1.953-1.953-1.953-5.119 0-7.071l11.018-11.018c.938-.938 2.209-1.464 3.536-1.464s2.598.527 3.536 1.464l11.018 11.018c.938.938 1.464 2.209 1.464 3.536s-.527 2.598-1.464 3.536l-11.018 11.018c-.977.976-2.257 1.464-3.536 1.463zm-3.947-16.018 3.947 3.947 3.947-3.947-3.947-3.947z" fill="#ff7eb8"/><path d="m207.751 89.577c-2.761 0-5-2.239-5-5 0-3.318-2.7-6.018-6.018-6.018-2.761 0-5-2.239-5-5s2.239-5 5-5c3.318 0 6.018-2.7 6.018-6.018 0-2.761 2.239-5 5-5s5 2.239 5 5c0 3.318 2.7 6.018 6.018 6.018 2.761 0 5 2.239 5 5s-2.239 5-5 5c-3.318 0-6.018 2.7-6.018 6.018 0 2.762-2.238 5-5 5z" fill="#ff7eb8"/><path d="m312.71 465.046h-113.421l14.782-58.603 7.9-31.301h68.057l7.9 31.301z" fill="#9fb0fe"/><path d="m297.928 406.443h-83.857l7.9-31.301h68.057z" fill="#8399fe"/><path d="m456 123.092v254.25c0 8.28-6.72 15-15 15h-370c-8.28 0-15-6.72-15-15v-254.25c0-8.28 6.72-15 15-15h370c8.28 0 15 6.72 15 15z" fill="#fff"/><path d="m123.83 108.092h264.34v233.858h-264.34z" fill="#97ffd2"/><path d="m151.833 360.953h-62.666c-1.657 0-3-1.343-3-3v-44.667c0-1.657 1.343-3 3-3h62.667c1.657 0 3 1.343 3 3v44.667c-.001 1.658-1.344 3-3.001 3z" fill="#6583fe"/><path d="m141.418 360.952h-24v-29.403c0-1.657 1.343-3 3-3h18c1.657 0 3 1.343 3 3z" fill="#9fb0fe"/><path d="m242.167 360.953h-62.667c-1.657 0-3-1.343-3-3v-44.667c0-1.657 1.343-3 3-3h62.667c1.657 0 3 1.343 3 3v44.667c0 1.658-1.344 3-3 3z" fill="#6583fe"/><path d="m231.751 360.952h-24v-29.403c0-1.657 1.343-3 3-3h18c1.657 0 3 1.343 3 3z" fill="#9fb0fe"/><path d="m332.5 360.953h-62.667c-1.657 0-3-1.343-3-3v-44.667c0-1.657 1.343-3 3-3h62.667c1.657 0 3 1.343 3 3v44.667c0 1.658-1.343 3-3 3z" fill="#6583fe"/><path d="m322.085 360.952h-24v-29.403c0-1.657 1.343-3 3-3h18c1.657 0 3 1.343 3 3z" fill="#9fb0fe"/><path d="m422.833 360.953h-62.667c-1.657 0-3-1.343-3-3v-44.667c0-1.657 1.343-3 3-3h62.667c1.657 0 3 1.343 3 3v44.667c0 1.658-1.343 3-3 3z" fill="#6583fe"/><path d="m412.418 360.952h-24v-29.403c0-1.657 1.343-3 3-3h18c1.657 0 3 1.343 3 3z" fill="#9fb0fe"/><path d="m456 156.263v-33.171c0-8.284-6.716-15-15-15h-370c-8.284 0-15 6.716-15 15v33.171z" fill="#ff7eb8"/><path d="m56 341.949v35.39c0 8.284 6.716 15 15 15h370c8.284 0 15-6.716 15-15v-35.39z" fill="#b7c5ff"/><g fill="#2626bc"><path d="m94.082 137.25c2.761 0 5-2.239 5-5v-.145c0-2.761-2.239-5-5-5s-5 2.239-5 5v.145c0 2.761 2.239 5 5 5z"/><path d="m113.407 137.25c2.761 0 5-2.239 5-5v-.145c0-2.761-2.239-5-5-5s-5 2.239-5 5v.145c0 2.761 2.239 5 5 5z"/><path d="m132.731 137.25c2.761 0 5-2.239 5-5v-.145c0-2.761-2.239-5-5-5s-5 2.239-5 5v.145c0 2.761 2.239 5 5 5z"/><path d="m441 103.092h-370c-11.028 0-20 8.972-20 20v254.247c0 11.028 8.972 20 20 20h140.213l-15.822 62.701h-15.325c-2.761 0-5 2.239-5 5s2.239 5 5 5h151.868c2.761 0 5-2.239 5-5s-2.239-5-5-5h-15.325l-11.023-43.686c-.676-2.678-3.396-4.298-6.071-3.625-2.678.676-4.3 3.394-3.625 6.071l10.406 41.239h-100.592l15.822-62.701h219.474c11.028 0 20-8.972 20-20v-254.246c0-11.028-8.972-20-20-20zm-370 10h370c5.514 0 10 4.486 10 10v28.171h-367.459c-2.761 0-5 2.239-5 5s2.239 5 5 5h367.459v175.686h-390v-213.857c0-5.515 4.486-10 10-10zm370 274.247h-370c-5.514 0-10-4.486-10-10v-30.39h390v30.39c0 5.514-4.486 10-10 10z"/></g><path d="m151.833 230.146h-62.666c-1.657 0-3-1.343-3-3v-44.667c0-1.657 1.343-3 3-3h62.667c1.657 0 3 1.343 3 3v44.667c-.001 1.657-1.344 3-3.001 3z" fill="#6583fe"/><path d="m141.418 230.145h-24v-29.403c0-1.657 1.343-3 3-3h18c1.657 0 3 1.343 3 3z" fill="#9fb0fe"/><path d="m242.167 230.146h-62.667c-1.657 0-3-1.343-3-3v-44.667c0-1.657 1.343-3 3-3h62.667c1.657 0 3 1.343 3 3v44.667c0 1.657-1.344 3-3 3z" fill="#6583fe"/><path d="m231.751 230.145h-24v-29.403c0-1.657 1.343-3 3-3h18c1.657 0 3 1.343 3 3z" fill="#9fb0fe"/><path d="m332.5 230.146h-62.667c-1.657 0-3-1.343-3-3v-44.667c0-1.657 1.343-3 3-3h62.667c1.657 0 3 1.343 3 3v44.667c0 1.657-1.343 3-3 3z" fill="#6583fe"/><path d="m322.085 230.145h-24v-29.403c0-1.657 1.343-3 3-3h18c1.657 0 3 1.343 3 3z" fill="#9fb0fe"/><path d="m422.833 230.146h-62.667c-1.657 0-3-1.343-3-3v-44.667c0-1.657 1.343-3 3-3h62.667c1.657 0 3 1.343 3 3v44.667c0 1.657-1.343 3-3 3z" fill="#6583fe"/><path d="m412.418 230.145h-24v-29.403c0-1.657 1.343-3 3-3h18c1.657 0 3 1.343 3 3z" fill="#9fb0fe"/><path d="m151.833 295.549h-62.666c-1.657 0-3-1.343-3-3v-44.667c0-1.657 1.343-3 3-3h62.667c1.657 0 3 1.343 3 3v44.667c-.001 1.658-1.344 3-3.001 3z" fill="#6583fe"/><path d="m141.418 295.548h-24v-29.403c0-1.657 1.343-3 3-3h18c1.657 0 3 1.343 3 3z" fill="#9fb0fe"/><path d="m242.167 295.549h-62.667c-1.657 0-3-1.343-3-3v-44.667c0-1.657 1.343-3 3-3h62.667c1.657 0 3 1.343 3 3v44.667c0 1.658-1.344 3-3 3z" fill="#6583fe"/><path d="m231.751 295.548h-24v-29.403c0-1.657 1.343-3 3-3h18c1.657 0 3 1.343 3 3z" fill="#9fb0fe"/><path d="m332.5 295.549h-62.667c-1.657 0-3-1.343-3-3v-44.667c0-1.657 1.343-3 3-3h62.667c1.657 0 3 1.343 3 3v44.667c0 1.658-1.343 3-3 3z" fill="#6583fe"/><path d="m322.085 295.548h-24v-29.403c0-1.657 1.343-3 3-3h18c1.657 0 3 1.343 3 3z" fill="#9fb0fe"/><path d="m422.833 295.549h-62.667c-1.657 0-3-1.343-3-3v-44.667c0-1.657 1.343-3 3-3h62.667c1.657 0 3 1.343 3 3v44.667c0 1.658-1.343 3-3 3z" fill="#6583fe"/><path d="m412.418 295.548h-24v-29.403c0-1.657 1.343-3 3-3h18c1.657 0 3 1.343 3 3z" fill="#9fb0fe"/><path d="m152.436 73.997c-2.761 0-5-2.239-5-5 0-3.318-2.7-6.018-6.018-6.018-2.761 0-5-2.239-5-5s2.239-5 5-5c3.318 0 6.018-2.7 6.018-6.018 0-2.761 2.239-5 5-5s5 2.239 5 5c0 3.318 2.7 6.018 6.018 6.018 2.761 0 5 2.239 5 5s-2.239 5-5 5c-3.318 0-6.018 2.7-6.018 6.018 0 2.762-2.239 5-5 5z" fill="#97ffd2"/></g></svg>