<svg id="Capa_1" enable-background="new 0 0 512 512" height="512" viewBox="0 0 512 512" width="512" xmlns="http://www.w3.org/2000/svg" xmlns:xlink="http://www.w3.org/1999/xlink"><linearGradient id="SVGID_1_" gradientUnits="userSpaceOnUse" x1="48.433" x2="503.073" y1="134.027" y2="411.712"><stop offset=".0485" stop-color="#d2deff"/><stop offset=".9993" stop-color="#dcfdee"/></linearGradient><g><path d="m408.229 151.761c-23.697-9.236-43.717-26.089-55.961-48.381-20.59-37.487-60.43-62.898-106.221-62.898-47.53 0-88.646 27.377-108.477 67.219-12.146 24.401-32.814 43.56-58.09 53.761-37.349 15.074-68.703 49.524-78.653 103.382-1.092 5.91-1.108 11.986-.016 17.896 15.448 83.573 82.399 120.435 143.334 110.66 34.126-5.474 68.672 5.909 93.967 29.462 51.434 47.892 133.884 62.907 213.923 11.57 9.377-6.014 21.957-18.634 27.966-28.015 68.966-107.669 17.879-219.713-71.772-254.656z" fill="url(#SVGID_1_)"/><path d="m441.001 88.71h-117.733c-9.151-28.423-35.801-48.995-67.267-48.995s-58.116 20.572-67.267 48.995h-117.733c-8.28 0-15 6.72-15 15v254.25c0 8.28 6.72 15 15 15h369.999c8.28 0 15-6.72 15-15v-254.25c.001-8.28-6.719-15-14.999-15z" fill="#2626bc" opacity=".1"/><path d="m312.711 466.667h-113.421l22.682-89.904h68.057z" fill="#9fb0fe"/><path d="m297.929 408.065h-83.857l7.9-31.302h68.057z" fill="#8399fe"/><path d="m456.001 124.713v254.25c0 8.28-6.72 15-15 15h-370c-8.28 0-15-6.72-15-15v-254.25c0-8.28 6.72-15 15-15h369.999c8.281 0 15.001 6.72 15.001 15z" fill="#fff"/><path d="m56.001 294.355v84.608c0 8.28 6.72 15 15 15h369.999c8.28 0 15-6.72 15-15v-84.608z" fill="#ffc4df"/><path d="m105.679 274.367h-49.678v-70.678h49.678c1.657 0 3 1.343 3 3v64.678c0 1.657-1.343 3-3 3z" fill="#97ffd2"/><path d="m456.001 274.367h-49.678c-1.657 0-3-1.343-3-3v-64.678c0-1.657 1.343-3 3-3h49.678z" fill="#97ffd2"/><path d="m375.397 274.367h-238.792c-1.657 0-3-1.343-3-3v-64.678c0-1.657 1.343-3 3-3h238.792c1.657 0 3 1.343 3 3v64.678c0 1.657-1.343 3-3 3z" fill="#97ffd2"/><ellipse cx="256.001" cy="249.364" fill="#02ffb3" rx="41.928" ry="9.324"/><path d="m456.001 157.885v-33.171c0-8.284-6.716-15-15-15h-370c-8.284 0-15 6.716-15 15v33.171z" fill="#6583fe"/><path d="m56.001 343.571v35.39c0 8.284 6.716 15 15 15h369.999c8.284 0 15-6.716 15-15v-35.39z" fill="#b7c5ff"/><path d="m326.668 131.382c0 30.938-44.405 90.54-62.816 113.921-4.003 5.084-11.699 5.084-15.702 0-18.41-23.381-62.816-82.983-62.816-113.921 0-39.028 31.639-70.667 70.667-70.667s70.667 31.639 70.667 70.667z" fill="#ff7eb8"/><ellipse cx="256.001" cy="127.218" fill="#fff" rx="34.405" ry="34.405" transform="matrix(.233 -.972 .972 .233 72.595 346.497)"/><g fill="#2626bc"><path d="m94.083 128.726c-2.762 0-5 2.238-5 5v.145c0 2.762 2.238 5 5 5s5-2.238 5-5v-.145c0-2.761-2.238-5-5-5z"/><path d="m113.408 128.726c-2.762 0-5 2.238-5 5v.145c0 2.762 2.238 5 5 5s5-2.238 5-5v-.145c0-2.761-2.238-5-5-5z"/><path d="m132.732 128.726c-2.762 0-5 2.238-5 5v.145c0 2.762 2.238 5 5 5s5-2.238 5-5v-.145c0-2.761-2.238-5-5-5z"/><path d="m441.001 104.713h-114.2c-10.809-28.6-38.462-48.998-70.8-48.998s-59.99 20.398-70.8 48.998h-114.2c-11.028 0-20 8.972-20 20v254.247c0 11.028 8.972 20 20 20h140.215l-15.819 62.701h-15.329c-2.762 0-5 2.238-5 5s2.238 5 5 5h151.867c2.762 0 5-2.238 5-5s-2.238-5-5-5h-15.33l-15.819-62.701h140.215c11.028 0 20-8.972 20-20v-35.389c0-2.762-2.238-5-5-5-.095 0-.183.023-.276.028-.093-.005-.182-.028-.276-.028h-394.448v-175.686h127.851c4.474 10.016 10.695 21.363 18.656 33.998 1.472 2.337 4.56 3.038 6.896 1.565 2.337-1.472 3.037-4.56 1.565-6.896-16.771-26.618-25.635-47.425-25.635-60.171 0-36.209 29.458-65.667 65.667-65.667s65.667 29.458 65.667 65.667c0 30.076-47.26 92.433-61.743 110.827-.954 1.212-2.385 1.906-3.924 1.906s-2.97-.694-3.923-1.905c-5.029-6.388-12.751-16.443-20.978-28.08-1.595-2.255-4.715-2.788-6.97-1.196-2.255 1.595-2.79 4.715-1.196 6.97 8.351 11.811 16.185 22.014 21.287 28.493 2.862 3.635 7.155 5.719 11.779 5.719s8.917-2.084 11.78-5.72c17.052-21.656 42.358-56.178 55.413-85.511h127.808v153.146c0 2.762 2.238 5 5 5s5-2.238 5-5v-191.317c0-11.029-8.972-20-20-20zm-134.709 356.948h-100.583l15.818-62.701h68.945zm144.709-113.09v30.389c0 5.514-4.486 10-10 10h-370c-5.514 0-10-4.486-10-10v-30.389zm-390-195.686v-28.172c0-5.514 4.486-10 10-10h111.206c-1.212 5.367-1.873 10.941-1.873 16.669 0 6 1.52 13.194 4.49 21.503zm266.222 0c2.808-7.887 4.445-15.192 4.445-21.503 0-5.728-.661-11.302-1.873-16.669h111.206c5.514 0 10 4.486 10 10v28.172z"/><path d="m256.001 166.623c21.729 0 39.405-17.677 39.405-39.405s-17.676-39.406-39.405-39.406-39.405 17.677-39.405 39.405 17.676 39.406 39.405 39.406zm0-68.811c16.214 0 29.405 13.191 29.405 29.405s-13.191 29.406-29.405 29.406-29.405-13.191-29.405-29.405 13.191-29.406 29.405-29.406z"/></g><g fill="#fff"><circle cx="104.554" cy="315.266" r="5.597"/><circle cx="121.485" cy="315.266" r="5.597"/><circle cx="138.417" cy="315.266" r="5.597"/><path d="m207.373 310.257h-16.736c-2.616 0-4.952 1.912-5.2 4.516-.285 2.987 2.056 5.501 4.985 5.501h16.951c2.766 0 5.008-2.242 5.008-5.009 0-2.765-2.242-5.008-5.008-5.008z"/></g><path d="m407.821 310.257h-176.094c-2.766 0-5.008 2.242-5.008 5.008s2.242 5.009 5.008 5.009h176.309c2.929 0 5.27-2.514 4.985-5.501-.248-2.603-2.584-4.516-5.2-4.516z" fill="#ff7eb8"/><path d="m361.047 71.845c-2.762 0-5-2.238-5-5 0-3.317-2.698-6.016-6.016-6.016-2.762 0-5-2.238-5-5s2.238-5 5-5c3.317 0 6.016-2.698 6.016-6.016 0-2.762 2.238-5 5-5s5 2.238 5 5c0 3.317 2.698 6.016 6.016 6.016 2.762 0 5 2.238 5 5s-2.238 5-5 5c-3.317 0-6.016 2.698-6.016 6.016 0 2.761-2.238 5-5 5z" fill="#97ffd2"/><path d="m127.082 448.746c-2.762 0-5-2.238-5-5 0-3.317-2.698-6.016-6.016-6.016-2.762 0-5-2.238-5-5s2.238-5 5-5c3.317 0 6.016-2.698 6.016-6.016 0-2.762 2.238-5 5-5s5 2.238 5 5c0 3.317 2.698 6.016 6.016 6.016 2.762 0 5 2.238 5 5s-2.238 5-5 5c-3.317 0-6.016 2.698-6.016 6.016 0 2.762-2.238 5-5 5z" fill="#6583fe"/><path d="m361.047 448.725c-1.279 0-2.56-.488-3.535-1.465l-10.994-10.994c-1.953-1.952-1.953-5.118 0-7.07l10.994-10.994c1.951-1.953 5.119-1.953 7.07 0l10.994 10.994c1.953 1.952 1.953 5.118 0 7.07l-10.994 10.994c-.976.976-2.256 1.465-3.535 1.465zm-3.923-15.995 3.923 3.923 3.923-3.923-3.923-3.923z" fill="#ff7eb8"/><path d="m413.045 472.285c-1.279 0-2.56-.488-3.535-1.465l-10.994-10.994c-1.953-1.952-1.953-5.118 0-7.07l10.994-10.994c1.951-1.953 5.119-1.953 7.07 0l10.994 10.994c1.953 1.952 1.953 5.118 0 7.07l-10.994 10.994c-.975.977-2.256 1.465-3.535 1.465zm-3.923-15.994 3.923 3.923 3.923-3.923-3.923-3.923z" fill="#ff7eb8"/></g></svg>