<svg id="Capa_1" enable-background="new 0 0 512 512" height="512" viewBox="0 0 512 512" width="512" xmlns="http://www.w3.org/2000/svg" xmlns:xlink="http://www.w3.org/1999/xlink"><linearGradient id="SVGID_1_" gradientUnits="userSpaceOnUse" x1="24.681" x2="524.971" y1="135.68" y2="380.41"><stop offset=".0485" stop-color="#ffdbed"/><stop offset=".9993" stop-color="#d2deff"/></linearGradient><g><path d="m505.626 289.418c-11.826-34.61-38.138-60.16-69.852-72.202-16.43-6.239-27.346-21.856-27.587-39.429-.005-.384-.012-.769-.021-1.154-1.507-64.582-55.488-116.33-120.077-115.221-38.094.654-71.788 19.355-92.905 47.92-18.185 24.599-46.49 39.965-77.08 39.949-.898 0-1.797.009-2.7.029-61.917 1.353-114.567 54.477-115.393 116.404-.879 65.932 52.303 119.654 118.032 119.654 50.947 0 94.349-32.277 110.886-77.497 4.327-11.832 17.152-18.174 29.283-14.772.151.042.303.085.455.127 11.099 3.064 18.458 13.64 17.55 25.119-1.217 15.383.581 31.255 5.798 46.796 20.521 61.135 87.188 94.685 148.493 74.68 62.711-20.465 96.379-88.185 75.118-150.403z" fill="url(#SVGID_1_)"/><path d="m441 104.019h-106c-.002-43.629-35.37-78.997-79-78.997s-78.998 35.368-79 78.997h-106c-8.28 0-15 6.72-15 15v254.25c0 8.28 6.72 15 15 15h370c8.28 0 15-6.72 15-15v-254.25c0-8.28-6.72-15-15-15z" fill="#2626bc" opacity=".1"/><path d="m312.71 481.977h-113.421l22.682-89.904h68.057z" fill="#9fb0fe"/><path d="m297.928 423.375h-83.857l7.9-31.302h68.057z" fill="#8399fe"/><path d="m456 140.018v254.25c0 8.28-6.72 15-15 15h-370c-8.28 0-15-6.72-15-15v-254.25c0-8.28 6.72-15 15-15h370c8.28 0 15 6.72 15 15z" fill="#fff"/><path d="m335 142.058c0 43.63-35.37 79-79 79s-79-35.37-79-79c0-5.85.64-11.56 1.85-17.04h154.31c1.2 5.48 1.84 11.19 1.84 17.04z" fill="#d2deff"/><path d="m456 140.018v33.18h-400v-33.18c0-8.28 6.72-15 15-15h370c8.28 0 15 6.72 15 15z" fill="#6583fe"/><path d="m335 142.058c0 11.06-2.27 21.59-6.38 31.14h-145.24c-4.11-9.55-6.38-20.08-6.38-31.14 0-5.85.64-11.56 1.85-17.04h154.31c1.2 5.48 1.84 11.19 1.84 17.04z" fill="#4369fd"/><g fill="#2626bc"><path d="m456 178.194h-136c-2.761 0-5-2.239-5-5s2.239-5 5-5h136c2.761 0 5 2.239 5 5s-2.239 5-5 5z"/><path d="m191.333 178.194h-135.333c-2.761 0-5-2.239-5-5s2.239-5 5-5h135.333c2.761 0 5 2.239 5 5s-2.238 5-5 5z"/><path d="m306.179 461.107c-2.236 0-4.272-1.511-4.844-3.778l-11.368-45.06c-.675-2.678.947-5.396 3.625-6.071 2.675-.677 5.396.948 6.071 3.625l11.368 45.06c.675 2.678-.947 5.396-3.625 6.071-.41.104-.823.153-1.227.153z"/><path d="m199.293 486.978c-.405 0-.816-.049-1.227-.153-2.678-.676-4.3-3.394-3.625-6.071l17.896-70.932c.675-2.678 3.394-4.3 6.071-3.625 2.678.676 4.3 3.394 3.625 6.071l-17.896 70.933c-.572 2.267-2.608 3.777-4.844 3.777z"/></g><path d="m56 358.881v35.39c0 8.284 6.716 15 15 15h370c8.284 0 15-6.716 15-15v-35.39z" fill="#b7c5ff"/><g fill="#2626bc"><path d="m455.447 363.881h-399.447c-2.761 0-5-2.239-5-5s2.239-5 5-5h399.447c2.761 0 5 2.239 5 5s-2.239 5-5 5z"/><path d="m331.934 486.972h-151.868c-2.761 0-5-2.239-5-5s2.239-5 5-5h151.868c2.761 0 5 2.239 5 5s-2.239 5-5 5z"/><path d="m94.082 154.181c-2.761 0-5-2.239-5-5v-.145c0-2.761 2.239-5 5-5s5 2.239 5 5v.145c0 2.761-2.239 5-5 5z"/><path d="m113.407 154.181c-2.761 0-5-2.239-5-5v-.145c0-2.761 2.239-5 5-5s5 2.239 5 5v.145c0 2.761-2.239 5-5 5z"/><path d="m132.731 154.181c-2.761 0-5-2.239-5-5v-.145c0-2.761 2.239-5 5-5s5 2.239 5 5v.145c0 2.761-2.238 5-5 5z"/><path d="m441 414.27h-370c-11.028 0-20-8.972-20-20v-254.248c0-11.028 8.972-20 20-20h103.5c2.761 0 5 2.239 5 5s-2.239 5-5 5h-103.5c-5.514 0-10 4.486-10 10v254.248c0 5.514 4.486 10 10 10h370c5.514 0 10-4.486 10-10v-254.248c0-5.514-4.486-10-10-10h-78.459c-2.761 0-5-2.239-5-5s2.239-5 5-5h78.459c11.028 0 20 8.972 20 20v254.248c0 11.028-8.972 20-20 20z"/><path d="m203.667 297.595h-81.667c-2.761 0-5-2.239-5-5s2.239-5 5-5h76.667v-28.62c0-2.761 2.239-5 5-5h45.951c2.761 0 5 2.239 5 5s-2.239 5-5 5h-40.951v28.62c0 2.761-2.239 5-5 5z"/><path d="m421 297.595h-181.937c-2.761 0-5-2.239-5-5s2.239-5 5-5h176.937v-79.793c0-2.761 2.239-5 5-5s5 2.239 5 5v84.793c0 2.761-2.239 5-5 5z"/><path d="m306 363.881c-2.761 0-5-2.239-5-5v-27.368h-97.333c-2.761 0-5-2.239-5-5v-41.015c0-2.761 2.239-5 5-5s5 2.239 5 5v36.015h97.333c2.761 0 5 2.239 5 5v32.368c0 2.762-2.239 5-5 5z"/><path d="m455.447 331.514h-115.447c-2.761 0-5-2.239-5-5s2.239-5 5-5h115.447c2.761 0 5 2.239 5 5s-2.239 5-5 5z"/><path d="m171 333.19h-82.333c-2.761 0-5-2.239-5-5v-48.453c0-2.761 2.239-5 5-5s5 2.239 5 5v43.453h77.333c2.761 0 5 2.239 5 5s-2.239 5-5 5z"/><path d="m140.333 363.881c-2.761 0-5-2.239-5-5v-30.691c0-2.761 2.239-5 5-5s5 2.239 5 5v30.691c0 2.762-2.238 5-5 5z"/><path d="m166.333 263.665h-44.333c-2.761 0-5-2.239-5-5v-84.17c0-2.761 2.239-5 5-5s5 2.239 5 5v79.17h39.333c2.761 0 5 2.239 5 5s-2.238 5-5 5z"/><path d="m88.667 252.458h-32.667c-2.761 0-5-2.239-5-5s2.239-5 5-5h27.667v-29.125c0-2.761 2.239-5 5-5s5 2.239 5 5v34.125c0 2.761-2.239 5-5 5z"/><path d="m288 263.975c-1.323 0-2.593-.524-3.53-1.459-.941-.938-1.47-2.212-1.47-3.541v-34.309c0-2.761 2.239-5 5-5h63.333c2.761 0 5 2.239 5 5s-2.239 5-5 5h-58.333v24.294l91-.279v-80.486c0-2.761 2.239-5 5-5s5 2.239 5 5v85.471c0 2.755-2.229 4.992-4.985 5l-101 .309c-.005 0-.01 0-.015 0z"/><path d="m288 229.665h-129c-2.761 0-5-2.239-5-5s2.239-5 5-5h129c2.761 0 5 2.239 5 5s-2.239 5-5 5z"/></g><circle cx="256" cy="125.023" fill="#02ffb3" r="79"/><path d="m256 209.023c-46.318 0-84-37.682-84-84s37.682-84 84-84 84 37.682 84 84c0 46.317-37.682 84-84 84zm0-158.001c-40.804 0-74 33.196-74 74s33.196 74 74 74 74-33.196 74-74-33.196-74-74-74z" fill="#2626bc"/><ellipse cx="256" cy="125.023" fill="#dcfdee" rx="58.576" ry="58.576" transform="matrix(.707 -.707 .707 .707 -13.424 217.638)"/><path d="m232.619 142.058c-1.279 0-2.56-.488-3.535-1.464l-12.035-12.035c-1.953-1.953-1.953-5.119 0-7.071l12.035-12.035c1.951-1.952 5.119-1.952 7.07 0 1.953 1.953 1.953 5.119 0 7.071l-8.499 8.5 8.499 8.5c1.953 1.953 1.953 5.119 0 7.071-.975.974-2.256 1.463-3.535 1.463z" fill="#01eca5"/><path d="m279.381 142.058c-1.279 0-2.56-.488-3.535-1.464-1.953-1.953-1.953-5.119 0-7.071l8.499-8.5-8.499-8.5c-1.953-1.953-1.953-5.119 0-7.071 1.951-1.952 5.119-1.952 7.07 0l12.035 12.035c1.953 1.953 1.953 5.119 0 7.071l-12.035 12.035c-.976.976-2.256 1.465-3.535 1.465z" fill="#01eca5"/><path d="m249.199 142.059c-.833 0-1.677-.208-2.453-.647-2.405-1.358-3.254-4.408-1.896-6.813l13.592-24.07c1.357-2.404 4.408-3.253 6.812-1.896 2.405 1.358 3.254 4.408 1.896 6.813l-13.592 24.07c-.919 1.628-2.614 2.543-4.359 2.543z" fill="#01eca5"/><path d="m374.533 472.13c-1.326 0-2.598-.527-3.536-1.464l-11.024-11.024c-.938-.938-1.464-2.209-1.464-3.536s.527-2.598 1.464-3.536l11.024-11.023c1.954-1.952 5.119-1.951 7.071 0l11.023 11.023c1.953 1.953 1.953 5.119 0 7.071l-11.023 11.024c-.937.938-2.209 1.465-3.535 1.465zm-3.953-16.024 3.953 3.953 3.953-3.953-3.953-3.953z" fill="#6583fe"/><path d="m152.462 462.191c-2.761 0-5-2.239-5-5 0-3.309-2.692-6-6-6-2.761 0-5-2.239-5-5s2.239-5 5-5c3.309 0 6-2.692 6-6 0-2.761 2.239-5 5-5s5 2.239 5 5c0 3.309 2.691 6 6 6 2.761 0 5 2.239 5 5s-2.239 5-5 5c-3.309 0-6 2.692-6 6 0 2.761-2.238 5-5 5z" fill="#97ffd2"/><path d="m357.342 76.896c-2.761 0-5-2.239-5-5 0-3.309-2.691-6-6-6-2.761 0-5-2.239-5-5s2.239-5 5-5c3.309 0 6-2.692 6-6 0-2.761 2.239-5 5-5s5 2.239 5 5c0 3.309 2.692 6 6 6 2.761 0 5 2.239 5 5s-2.239 5-5 5c-3.309 0-6 2.692-6 6 0 2.762-2.238 5-5 5z" fill="#ff7eb8"/><path d="m412 95.13c-2.761 0-5-2.239-5-5 0-3.309-2.692-6-6-6-2.761 0-5-2.239-5-5s2.239-5 5-5c3.309 0 6-2.692 6-6 0-2.761 2.239-5 5-5s5 2.239 5 5c0 3.309 2.691 6 6 6 2.761 0 5 2.239 5 5s-2.239 5-5 5c-3.309 0-6 2.692-6 6 0 2.761-2.238 5-5 5z" fill="#ff7eb8"/></g></svg>