<svg id="Capa_1" enable-background="new 0 0 512 512" height="512" viewBox="0 0 512 512" width="512" xmlns="http://www.w3.org/2000/svg" xmlns:xlink="http://www.w3.org/1999/xlink"><linearGradient id="SVGID_1_" gradientUnits="userSpaceOnUse" x1="59.221" x2="503.202" y1="135.821" y2="423.867"><stop offset=".0485" stop-color="#d2deff"/><stop offset=".9993" stop-color="#dcfdee"/></linearGradient><g><path d="m408.229 151.762c-23.697-9.236-43.717-26.089-55.961-48.381-20.59-37.487-60.43-62.898-106.221-62.898-47.53 0-88.646 27.377-108.477 67.219-12.146 24.401-32.814 43.56-58.09 53.762-37.349 15.074-68.703 49.524-78.653 103.382-1.092 5.91-1.108 11.986-.016 17.896 15.448 83.573 82.399 120.435 143.334 110.66 34.126-5.474 68.672 5.909 93.967 29.462 51.434 47.892 133.884 62.907 213.923 11.57 9.377-6.014 21.957-18.634 27.966-28.015 68.966-107.671 17.879-219.715-71.772-254.657z" fill="url(#SVGID_1_)"/><path d="m474.501 261.167h-43.52v-96c11.926 0 21.593-9.668 21.593-21.593 0-11.926-9.668-21.593-21.593-21.593-7.991 0-14.951 4.351-18.685 10.803l-21.745-12.553-2.624-1.515c1.625-1.778 2.624-4.137 2.624-6.736v-47.796c0-5.523-4.478-10.001-10.001-10.001h-56.086c-5.523 0-10.001 4.477-10.001 10.001v12.118l-.002-.001-39.605-22.863c1.839-3.177 2.908-6.855 2.908-10.79 0-11.926-9.668-21.593-21.593-21.593-11.926 0-21.593 9.668-21.593 21.593 0 3.935 1.069 7.613 2.908 10.79l-137.44 79.346c-3.734-6.451-10.694-10.803-18.685-10.803-11.926 0-21.593 9.668-21.593 21.593 0 11.926 9.667 21.593 21.593 21.593v34.202h-36.824c-5.523 0-10.001 4.478-10.001 10.001v47.796c0 5.523 4.477 10.001 10.001 10.001h36.825v56.666c-11.926 0-21.593 9.668-21.593 21.593 0 11.926 9.668 21.593 21.593 21.593 7.99 0 14.95-4.351 18.685-10.803l137.44 79.346c-1.839 3.177-2.908 6.855-2.908 10.79 0 11.926 9.668 21.593 21.593 21.593 11.926 0 21.593-9.668 21.593-21.593 0-3.935-1.069-7.613-2.908-10.79l69.394-40.062 25.983-15h104.267c5.523 0 10-4.477 10-10v-99.333c0-5.523-4.477-10.001-10-10z" fill="#2626bc" opacity=".1"/><path d="m430.981 161.57v201.859l-86.73 50.07-88.08 50.85-174.809-100.921v-201.858l174.809-100.92 58.29 33.65 76.09 43.93z" fill="#ffc4df"/><path d="m430.981 294.169v69.26l-86.73 50.07h-43.75c-5.52 0-10-4.48-10-10v-99.33c0-5.53 4.48-10 10-10z" fill="#ffa8cf"/><path d="m110.622 239.369v47.8c0 5.52-4.48 10-10 10h-19.26v-67.8h19.26c5.52 0 10 4.48 10 10z" fill="#ffa8cf"/><path d="m390.551 138.23v3.75c0 5.52-4.48 10-10 10h-56.09c-5.52 0-10-4.48-10-10v-47.68z" fill="#ffa8cf"/><path d="m256.223 369.998-125.195-35.248 1.991-143.353 123.152-75.897 122.619 76.206-37.788 119.771z" fill="#9fb0fe"/><g fill="#02ffb3"><ellipse cx="256.171" cy="60.647" rx="21.593" ry="21.593" transform="matrix(.16 -.987 .987 .16 155.273 303.795)"/><ellipse cx="256.171" cy="464.351" rx="21.593" ry="21.593" transform="matrix(.16 -.987 .987 .16 -243.219 642.833)"/><ellipse cx="430.981" cy="161.573" rx="21.593" ry="21.593" transform="matrix(.23 -.973 .973 .23 174.711 543.902)"/><ellipse cx="81.362" cy="161.573" rx="21.593" ry="21.593" transform="matrix(.23 -.973 .973 .23 -94.582 203.636)"/><ellipse cx="81.362" cy="363.425" rx="21.593" ry="21.593" transform="matrix(.707 -.707 .707 .707 -233.15 163.977)"/></g><path d="m474.501 398.498h-173.999c-5.523 0-10-4.477-10-10v-99.333c0-5.523 4.477-10 10-10h173.999c5.523 0 10 4.477 10 10v99.333c0 5.523-4.477 10-10 10z" fill="#fff"/><path d="m369.878 316.485h-46.742c-2.766 0-5.008-2.242-5.008-5.008s2.242-5.008 5.008-5.008h46.742c2.766 0 5.008 2.242 5.008 5.008 0 2.765-2.241 5.008-5.008 5.008z" fill="#9fb0fe"/><path d="m429.878 352.349h-106.742c-2.766 0-5.008-2.242-5.008-5.008s2.242-5.008 5.008-5.008h106.742c2.766 0 5.008 2.242 5.008 5.008s-2.242 5.008-5.008 5.008z" fill="#b7c5ff"/><path d="m429.878 372.633h-106.742c-2.766 0-5.008-2.242-5.008-5.008s2.242-5.008 5.008-5.008h106.742c2.766 0 5.008 2.242 5.008 5.008 0 2.765-2.242 5.008-5.008 5.008z" fill="#b7c5ff"/><path d="m412.838 324.254c-1.279 0-2.559-.488-3.535-1.464-2.34-2.339-6.146-2.339-8.486 0-1.951 1.952-5.118 1.953-7.071 0-.976-.976-1.464-2.256-1.464-3.536 0-1.279.488-2.559 1.465-3.535 1.133-1.133 1.757-2.64 1.757-4.242s-.624-3.109-1.757-4.243c-.977-.977-1.465-2.256-1.465-3.536s.488-2.559 1.465-3.536c1.951-1.952 5.119-1.952 7.07 0 2.34 2.34 6.146 2.34 8.486 0 1.951-1.952 5.119-1.952 7.07 0 .977.977 1.465 2.256 1.465 3.536s-.488 2.559-1.465 3.536c-1.133 1.133-1.757 2.64-1.757 4.243s.624 3.109 1.757 4.242c.977.976 1.465 2.256 1.465 3.535 0 1.28-.488 2.56-1.464 3.536-.977.976-2.257 1.464-3.536 1.464z" fill="#ff7eb8"/><path d="m453.504 324.254c-1.279 0-2.559-.488-3.535-1.464-2.34-2.339-6.146-2.339-8.486 0-1.951 1.952-5.118 1.953-7.071 0-.976-.976-1.464-2.256-1.464-3.536 0-1.279.488-2.559 1.465-3.535 1.133-1.133 1.757-2.64 1.757-4.242s-.624-3.109-1.757-4.243c-.977-.977-1.465-2.256-1.465-3.536s.488-2.559 1.465-3.536c1.951-1.952 5.119-1.952 7.07 0 2.34 2.34 6.146 2.34 8.486 0 1.951-1.952 5.119-1.952 7.07 0 .977.977 1.465 2.256 1.465 3.536s-.488 2.559-1.465 3.536c-1.133 1.133-1.757 2.64-1.757 4.243s.624 3.109 1.757 4.242c.977.976 1.465 2.256 1.465 3.535 0 1.28-.488 2.56-1.464 3.536s-2.257 1.464-3.536 1.464z" fill="#ff7eb8"/><path d="m100.623 285.166h-56.086c-5.523 0-10.001-4.477-10.001-10.001v-47.796c0-5.523 4.477-10.001 10.001-10.001h56.086c5.523 0 10.001 4.477 10.001 10.001v47.796c0 5.524-4.478 10.001-10.001 10.001z" fill="#ff7eb8"/><path d="m65.779 268.304c-.833 0-1.677-.208-2.453-.647-2.405-1.358-3.254-4.408-1.896-6.813l13.593-24.072c1.358-2.404 4.409-3.253 6.812-1.896 2.405 1.358 3.254 4.408 1.896 6.813l-13.593 24.072c-.919 1.628-2.614 2.543-4.359 2.543z" fill="#fff"/><path d="m380.55 139.98h-56.086c-5.523 0-10.001-4.477-10.001-10.001v-47.796c0-5.523 4.478-10.001 10.001-10.001h56.086c5.523 0 10.001 4.477 10.001 10.001v47.796c0 5.523-4.477 10.001-10.001 10.001z" fill="#6583fe"/><path d="m345.706 123.118c-.833 0-1.677-.209-2.453-.647-2.405-1.358-3.254-4.408-1.896-6.813l13.593-24.072c1.358-2.404 4.409-3.253 6.812-1.896 2.405 1.358 3.254 4.408 1.896 6.813l-13.593 24.072c-.919 1.628-2.614 2.543-4.359 2.543z" fill="#fff"/><ellipse cx="256.171" cy="262.499" fill="#fff" rx="11.232" ry="11.232" transform="matrix(.23 -.973 .973 .23 -58.162 451.507)"/><g fill="#2626bc"><path d="m251.171 196.401c0 2.761 2.238 5 5 5s5-2.239 5-5v-12.018c0-2.761-2.238-5-5-5s-5 2.239-5 5z"/><path d="m256.171 129.294c2.762 0 5-2.239 5-5v-12.018c0-2.761-2.238-5-5-5s-5 2.239-5 5v12.018c0 2.761 2.238 5 5 5z"/><path d="m251.171 160.348c0 2.761 2.238 5 5 5s5-2.239 5-5v-12.018c0-2.761-2.238-5-5-5s-5 2.239-5 5z"/><path d="m256.171 395.704c-2.762 0-5 2.239-5 5v12.018c0 2.761 2.238 5 5 5s5-2.239 5-5v-12.018c0-2.761-2.238-5-5-5z"/><path d="m261.171 328.598c0-2.761-2.238-5-5-5s-5 2.239-5 5v12.018c0 2.761 2.238 5 5 5s5-2.239 5-5z"/><path d="m261.171 292.544c0-2.761-2.238-5-5-5s-5 2.239-5 5v12.018c0 2.761 2.238 5 5 5s5-2.239 5-5z"/><path d="m261.171 364.65c0-2.761-2.238-5-5-5s-5 2.239-5 5v12.018c0 2.761 2.238 5 5 5s5-2.239 5-5z"/><path d="m251.171 232.455c0 2.761 2.238 5 5 5s5-2.239 5-5v-12.018c0-2.761-2.238-5-5-5s-5 2.239-5 5z"/><path d="m122.292 339.795c.926 1.604 2.606 2.501 4.335 2.501.848 0 1.708-.216 2.495-.671l10.28-5.936c2.392-1.381 3.211-4.439 1.83-6.83-1.38-2.391-4.439-3.212-6.83-1.83l-10.28 5.936c-2.392 1.381-3.211 4.438-1.83 6.83z"/><path d="m342.515 217.653c.848 0 1.708-.216 2.495-.671l10.28-5.936c2.392-1.381 3.211-4.438 1.83-6.83-1.38-2.391-4.439-3.212-6.83-1.83l-10.28 5.936c-2.392 1.381-3.211 4.438-1.83 6.83.925 1.604 2.606 2.501 4.335 2.501z"/><path d="m311.673 235.459c.848 0 1.708-.216 2.495-.671l10.28-5.935c2.392-1.38 3.211-4.438 1.83-6.83-1.38-2.391-4.438-3.212-6.83-1.83l-10.28 5.935c-2.392 1.38-3.211 4.438-1.83 6.83.926 1.604 2.606 2.501 4.335 2.501z"/><path d="m280.832 253.265c.848 0 1.708-.216 2.495-.671l10.28-5.935c2.392-1.38 3.211-4.438 1.83-6.83-1.38-2.391-4.439-3.212-6.83-1.83l-10.28 5.935c-2.392 1.38-3.211 4.438-1.83 6.83.926 1.604 2.607 2.501 4.335 2.501z"/><path d="m373.355 199.847c.848 0 1.708-.216 2.495-.671l10.28-5.936c2.392-1.381 3.211-4.439 1.83-6.83-1.38-2.391-4.438-3.212-6.83-1.83l-10.28 5.936c-2.392 1.381-3.211 4.438-1.83 6.83.926 1.604 2.607 2.501 4.335 2.501z"/><path d="m214.814 286.377c.926 1.604 2.606 2.501 4.335 2.501.848 0 1.708-.216 2.495-.671l10.281-5.936c2.392-1.38 3.211-4.438 1.83-6.83-1.38-2.391-4.438-3.212-6.83-1.83l-10.281 5.936c-2.391 1.38-3.21 4.438-1.83 6.83z"/><path d="m153.133 321.989c.926 1.604 2.606 2.501 4.335 2.501.848 0 1.708-.216 2.495-.671l10.28-5.936c2.392-1.381 3.211-4.439 1.83-6.83-1.38-2.391-4.438-3.212-6.83-1.83l-10.28 5.936c-2.392 1.381-3.211 4.438-1.83 6.83z"/><path d="m183.974 304.183c.926 1.604 2.606 2.501 4.335 2.501.848 0 1.708-.216 2.495-.671l10.28-5.936c2.392-1.381 3.211-4.439 1.83-6.83-1.38-2.391-4.438-3.212-6.83-1.83l-10.28 5.936c-2.392 1.38-3.211 4.438-1.83 6.83z"/><path d="m217.604 246.006 10.32 5.958c.788.455 1.647.671 2.495.671 1.729 0 3.409-.897 4.335-2.501 1.381-2.392.562-5.45-1.83-6.83l-10.32-5.958c-2.396-1.382-5.451-.561-6.83 1.83-1.381 2.391-.562 5.45 1.83 6.83z"/><path d="m124.724 192.381 10.32 5.958c.787.455 1.647.671 2.495.671 1.729 0 3.409-.897 4.335-2.501 1.381-2.392.562-5.449-1.83-6.83l-10.32-5.958c-2.393-1.382-5.45-.56-6.83 1.83-1.381 2.392-.562 5.45 1.83 6.83z"/><path d="m186.644 228.131 10.32 5.958c.787.455 1.647.671 2.495.671 1.729 0 3.409-.897 4.335-2.501 1.381-2.392.562-5.449-1.83-6.83l-10.32-5.958c-2.393-1.381-5.45-.561-6.83 1.83-1.381 2.391-.562 5.449 1.83 6.83z"/><path d="m155.684 210.256 10.32 5.958c.788.455 1.647.671 2.495.671 1.729 0 3.409-.897 4.335-2.501 1.381-2.392.562-5.45-1.83-6.83l-10.32-5.958c-2.396-1.381-5.451-.561-6.83 1.83-1.381 2.392-.562 5.45 1.83 6.83z"/><path d="m474.501 274.166h-38.521v-86.478c12.281-2.347 21.594-13.161 21.594-26.115 0-14.664-11.93-26.593-26.594-26.593-8.023 0-15.222 3.577-20.102 9.213l-16.16-9.33c.53-1.533.833-3.172.833-4.884v-47.796c0-8.271-6.729-15.001-15-15.001h-56.087c-8.271 0-15 6.729-15 15.001v3.458l-28.177-16.268c.953-2.736 1.478-5.67 1.478-8.727 0-14.664-11.93-26.593-26.594-26.593-14.663 0-26.593 11.93-26.593 26.593 0 3.056.525 5.991 1.478 8.727l-129.592 74.82c-4.88-5.637-12.079-9.214-20.102-9.214-14.664 0-26.594 11.93-26.594 26.593 0 12.954 9.313 23.768 21.594 26.115v24.68h-31.825c-8.271 0-15.001 6.729-15.001 15.001v47.796c0 8.271 6.729 15.001 15.001 15.001h56.086c8.271 0 15.001-6.729 15.001-15.001v-47.796c0-8.271-6.729-15.001-15.001-15.001h-14.261v-24.68c5.985-1.144 11.262-4.3 15.102-8.735l2.619 1.512c.787.455 1.646.671 2.495.671 1.728 0 3.409-.897 4.335-2.5 1.381-2.392.562-5.45-1.83-6.831l-2.606-1.505c.953-2.736 1.478-5.67 1.478-8.727s-.525-5.991-1.478-8.727l129.592-74.82c3.84 4.436 9.117 7.591 15.102 8.735v1.479c0 2.761 2.238 5 5 5s5-2.239 5-5v-1.479c5.986-1.144 11.263-4.3 15.103-8.735l33.19 19.162v32.791c0 8.271 6.729 15.001 15 15.001h56.087c2.871 0 5.547-.825 7.829-2.23l17.486 10.096c-.953 2.736-1.478 5.67-1.478 8.727 0 3.056.525 5.991 1.478 8.727l-4.174 2.41c-2.392 1.38-3.211 4.438-1.83 6.83.926 1.604 2.606 2.501 4.335 2.501.848 0 1.708-.216 2.495-.671l4.187-2.417c3.84 4.436 9.117 7.591 15.102 8.735v91.478c0 2.761 2.238 5 5 5h43.52c2.757 0 5 2.243 5 5v99.333c0 2.757-2.243 5-5 5h-173.999c-2.757 0-5-2.243-5-5v-99.333c0-2.757 2.243-5 5-5h102.94c2.762 0 5-2.239 5-5s-2.238-5-5-5h-102.94c-3.355 0-6.446 1.121-8.947 2.989l-7.032-4.059c-2.396-1.383-5.451-.561-6.83 1.83-1.381 2.392-.562 5.45 1.83 6.83l6.455 3.727c-.3 1.181-.477 2.411-.477 3.684v99.333c0 8.271 6.729 15 15 15h51.069l-75.297 43.473c-3.84-4.436-9.117-7.592-15.103-8.735v-1.478c0-2.761-2.238-5-5-5s-5 2.239-5 5v1.478c-5.986 1.144-11.262 4.3-15.102 8.736l-129.592-74.82c.953-2.736 1.478-5.67 1.478-8.726 0-3.057-.525-5.991-1.478-8.727l2.084-1.203c2.392-1.38 3.211-4.438 1.83-6.83-1.381-2.391-4.439-3.212-6.83-1.83l-2.096 1.21c-3.84-4.436-9.116-7.591-15.102-8.735v-24.606c0-2.761-2.238-5-5-5s-5 2.239-5 5v24.606c-12.281 2.347-21.594 13.161-21.594 26.115 0 14.663 11.93 26.593 26.594 26.593 8.023 0 15.222-3.577 20.102-9.214l129.592 74.82c-.953 2.736-1.478 5.67-1.478 8.727 0 14.663 11.93 26.593 26.593 26.593 14.664 0 26.594-11.93 26.594-26.593 0-3.057-.525-5.991-1.478-8.727l89.694-51.785c.172-.099.318-.225.473-.341h103.046c8.271 0 15-6.729 15-15v-99.333c0-8.272-6.729-15.001-14.999-15.001zm-368.877-46.797v47.796c0 2.757-2.243 5.001-5.001 5.001h-56.086c-2.758 0-5.001-2.244-5.001-5.001v-47.796c0-2.757 2.243-5.001 5.001-5.001h56.086c2.758 0 5.001 2.244 5.001 5.001zm-24.262-49.203c-9.149 0-16.594-7.443-16.594-16.593s7.444-16.593 16.594-16.593 16.593 7.444 16.593 16.593-7.443 16.593-16.593 16.593zm174.809-100.926c-9.149 0-16.593-7.443-16.593-16.593s7.443-16.593 16.593-16.593 16.594 7.444 16.594 16.593-7.445 16.593-16.594 16.593zm124.38 57.74h-56.087c-2.757 0-5-2.244-5-5.001v-47.796c0-2.757 2.243-5.001 5-5.001h56.087c2.757 0 5 2.244 5 5.001v47.796c0 2.757-2.243 5.001-5 5.001zm33.837 26.593c0-9.149 7.443-16.593 16.593-16.593s16.594 7.444 16.594 16.593-7.444 16.593-16.594 16.593-16.593-7.443-16.593-16.593zm-333.026 218.445c-9.149 0-16.594-7.443-16.594-16.593s7.444-16.593 16.594-16.593 16.593 7.444 16.593 16.593-7.443 16.593-16.593 16.593zm174.809 100.926c-9.149 0-16.593-7.443-16.593-16.593s7.443-16.593 16.593-16.593 16.594 7.444 16.594 16.593-7.445 16.593-16.594 16.593z"/><path d="m239.939 262.5c0 8.95 7.281 16.232 16.231 16.232s16.232-7.282 16.232-16.232c0-8.951-7.282-16.232-16.232-16.232s-16.231 7.281-16.231 16.232zm16.232-6.233c3.437 0 6.232 2.796 6.232 6.232s-2.796 6.232-6.232 6.232-6.231-2.795-6.231-6.232 2.795-6.232 6.231-6.232z"/></g><path d="m38.518 332.502c-1.326 0-2.598-.527-3.535-1.464l-11.017-11.018c-1.953-1.953-1.953-5.119 0-7.071l11.017-11.017c.938-.938 2.209-1.464 3.535-1.464s2.598.527 3.535 1.464l11.018 11.017c.938.938 1.465 2.209 1.465 3.536s-.526 2.598-1.465 3.536l-11.018 11.017c-.938.937-2.209 1.464-3.535 1.464zm-3.946-16.018 3.945 3.946 3.946-3.946-3.946-3.946z" fill="#6583fe"/><path d="m401.568 447.87c-1.326 0-2.598-.527-3.535-1.464l-11.018-11.017c-.938-.938-1.465-2.209-1.465-3.536s.526-2.598 1.465-3.536l11.018-11.017c.938-.938 2.209-1.464 3.535-1.464s2.598.527 3.535 1.464l11.017 11.017c1.953 1.953 1.953 5.119 0 7.071l-11.017 11.017c-.937.938-2.208 1.465-3.535 1.465zm-3.946-16.017 3.946 3.946 3.945-3.946-3.945-3.946z" fill="#ff7eb8"/><path d="m436.827 103.943c-.848 0-1.708-.216-2.495-.671l-13.493-7.79c-2.392-1.38-3.211-4.438-1.83-6.83l7.79-13.493c1.38-2.391 4.438-3.212 6.83-1.83l13.493 7.79c2.392 1.38 3.211 4.438 1.83 6.83l-7.79 13.493c-.926 1.604-2.606 2.501-4.335 2.501zm-6.658-14.621 4.833 2.79 2.79-4.833-4.833-2.79z" fill="#ff7eb8"/><path d="m407.567 59.107c-2.762 0-5-2.239-5-5 0-3.318-2.699-6.017-6.017-6.017-2.762 0-5-2.239-5-5s2.238-5 5-5c3.317 0 6.017-2.699 6.017-6.017 0-2.761 2.238-5 5-5s5 2.239 5 5c0 3.318 2.699 6.017 6.018 6.017 2.762 0 5 2.239 5 5s-2.238 5-5 5c-3.318 0-6.018 2.699-6.018 6.017 0 2.761-2.238 5-5 5z" fill="#97ffd2"/></g></svg>