<svg xmlns="http://www.w3.org/2000/svg" width="73.656" height="71.835" viewBox="0 0 73.656 71.835">
  <path id="dc_logo" d="M48.077,74.6H73.656V62.644H60.09V14.765H73.656V2.77H48.077ZM23.886,14.792V62.58a.146.146,0,0,0,.061.021H35.616c.082,0,.18.034.234-.043V14.774H24.361a4.236,4.236,0,0,0-.475.018ZM23.77,62.668H12.217c-.085,0-.177.024-.247-.055V14.734h11.55a3.106,3.106,0,0,0,.448-.021V2.776H0V74.6H23.959V63.061a.8.8,0,0,1,.033-.4c-.07,0-.146.012-.222.012Z" transform="translate(0 -2.77)" fill="#fff"/>
</svg>
