<svg id="Icon_ionic-logo-javascript" data-name="Icon ionic-logo-javascript" xmlns="http://www.w3.org/2000/svg" width="138.812" height="116.068" viewBox="0 0 138.812 116.068">
  <path id="Path_1" data-name="Path 1" d="M29.785,2.813H5v70.05C5,90.2-.59,95.037-10.313,95.037a35.012,35.012,0,0,1-11.851-2l-2.586,20.515a55.514,55.514,0,0,0,17.013,2.668c22.324,0,37.516-11.167,37.516-43.178V2.813Z" transform="translate(24.75 -0.154)"/>
  <path id="Path_2" data-name="Path 2" d="M30.185,2.261C6.19,2.261-9,16.764-9,35.936-9,52.446,2.7,62.783,19.706,69.45c12.3,4.666,17.165,8.837,17.165,15.672,0,7.5-5.621,12.333-16.252,12.333a51.253,51.253,0,0,1-24.912-7h0L-9,111.289A58.443,58.443,0,0,0,19.242,118.3c28.1,0,41.16-16.006,41.16-34.843,0-16.006-8.353-26.34-26.424-33.68C20.617,44.1,15,40.941,15,33.765c0-5.671,4.86-10.835,14.886-10.835a40.872,40.872,0,0,1,20.606,5.7l5.927-21.1A60.486,60.486,0,0,0,30.185,2.261Z" transform="translate(78.409 -2.241)"/>
</svg>
