<svg xmlns="http://www.w3.org/2000/svg" width="235.253" height="131.634" viewBox="0 0 235.253 131.634">
  <path id="Icon_awesome-php" data-name="Icon awesome-php" d="M117.628,12.736c63,0,111.452,28.236,111.452,59.247s-48.485,59.242-111.452,59.242c-63,0-111.452-28.236-111.452-59.247S54.658,12.736,117.628,12.736m0-6.57C52.676,6.166,0,35.614,0,71.983S52.676,137.8,117.628,137.8s117.625-29.448,117.625-65.817S182.58,6.166,117.628,6.166ZM80.206,66.7c-2.9,15.838-13.159,14.2-25.768,14.2l5.034-27.609C73.443,53.291,82.927,51.687,80.206,66.7ZM35.8,108.863h13.49L52.5,91.341c15.1,0,24.481,1.173,33.157-7.47,9.589-9.386,12.094-26.084,5.257-34.454-3.565-4.379-9.3-6.532-17.093-6.532h-26Zm68.26-83.533h13.425l-3.2,17.519c11.579,0,22.312-.9,27.494,4.185,5.439,5.318,2.831,12.122-3.052,44.23H125.126c5.66-31.052,6.724-33.633,4.668-35.979-1.985-2.267-6.506-1.8-17.423-1.8l-6.911,37.777H92.034ZM185.629,66.7c-2.941,16.068-13.49,14.2-25.768,14.2l5.034-27.609C178.941,53.291,188.35,51.687,185.629,66.7Zm-44.4,42.164h13.528l3.2-17.519c15.88,0,24.666.977,33.157-7.47,9.589-9.386,12.094-26.084,5.257-34.454-3.565-4.379-9.3-6.532-17.093-6.532H153.282Z" transform="translate(0 -6.166)" fill="#888ed2"/>
</svg>
