<svg xmlns="http://www.w3.org/2000/svg" width="123.199" height="131.066" viewBox="0 0 123.199 131.066">
  <path id="Icon_awesome-python" data-name="Icon awesome-python" d="M120.94,51.543C118.824,42.5,114.807,35.7,106.257,35.7H95.231V49.565C95.118,60.356,87,69.12,76.863,69.4H47.492c-8.136.175-14.654,7.226-14.683,15.884v29.772c0,8.483,6.931,13.456,14.683,15.884a46.584,46.584,0,0,0,29.368,0c7.4-2.282,14.683-6.875,14.683-15.884V103.15H62.2V99.171h44.051c8.552,0,11.714-6.349,14.683-15.846,3.08-9.8,2.943-19.22,0-31.771ZM78.7,111.078a5.6,5.6,0,0,1,5.224,3.626,6.238,6.238,0,0,1-1.173,6.517,5.356,5.356,0,0,1-6.113,1.316,5.971,5.971,0,0,1-3.462-5.52A5.747,5.747,0,0,1,78.7,111.078ZM46.145,65.47H75.513C83.691,65.4,90.265,58.286,90.2,49.586V19.775c0-8.483-6.71-14.824-14.683-16.265a85.272,85.272,0,0,0-29.368.028C33.715,5.879,31.462,10.763,31.462,19.8V31.71H60.856V35.69H20.423a22.27,22.27,0,0,0-2.883.215c-7.81,1.074-14.07,7.4-15.48,15.641a62.2,62.2,0,0,0,0,31.771c2.09,9.244,7.068,15.846,15.615,15.846h10.09V84.894c.221-10.679,8.341-19.26,18.38-19.424ZM44.3,23.752a5.6,5.6,0,0,1-5.224-3.626,6.238,6.238,0,0,1,1.173-6.517,5.356,5.356,0,0,1,6.113-1.316,5.971,5.971,0,0,1,3.462,5.52A5.747,5.747,0,0,1,44.3,23.752Z" transform="translate(0.003 -2.25)" fill="#e0d000"/>
</svg>
