<svg xmlns="http://www.w3.org/2000/svg" width="124.993" height="132.979" viewBox="0 0 124.993 132.979">
  <path id="Icon_awesome-wordpress" data-name="Icon awesome-wordpress" d="M14.089,43.834l25.578,74.533C13.639,104.931,2.321,71.951,14.089,43.834ZM99.242,64.183a31.486,31.486,0,0,0-4.41-15.737c-2.722-4.692-5.266-8.688-5.266-13.38-.138-5.44,3.888-9.972,9-10.134a6.337,6.337,0,0,1,.705.054A51.556,51.556,0,0,0,56.43,10.431c-15.6,2.064-29.554,11.305-38.183,25.279,1.26.054,2.433.08,3.452.08,5.595,0,14.289-.725,14.289-.725a2.267,2.267,0,0,1,2.3,2.165,2.322,2.322,0,0,1-1.95,2.527s-2.9.349-6.123.536l19.531,61.772L61.492,64.638,53.151,40.293c-2.9-.189-5.619-.536-5.619-.536a2.311,2.311,0,0,1-2.041-2.521,2.26,2.26,0,0,1,2.369-2.171s8.845.725,14.109.725c5.595,0,14.289-.725,14.289-.725a2.267,2.267,0,0,1,2.3,2.165,2.322,2.322,0,0,1-1.95,2.527s-2.9.349-6.123.536l19.38,61.316L95.219,82.6c2.257-7.88,4.021-13.538,4.021-18.418ZM63.985,72.04,47.906,121.775a50.38,50.38,0,0,0,32.936-.911,4.38,4.38,0,0,1-.377-.776Zm46.126-32.362a47.237,47.237,0,0,1,.353,5.872,56.5,56.5,0,0,1-4.082,20.429l-16.39,50.377c25.112-15.55,34.031-49.539,20.119-76.678ZM125.56,67.05c0,36.723-27.979,66.491-62.494,66.492S.568,103.775.567,67.055,28.546.564,63.061.563c34.5.046,62.45,29.789,62.489,66.49Zm-2.873,0c0-35.029-26.692-63.428-59.62-63.431S3.442,32.017,3.44,67.048s26.692,63.435,59.62,63.438c32.911-.045,59.579-28.42,59.618-63.433Z" transform="translate(-0.567 -0.563)" fill="#fafafa"/>
</svg>
