<svg xmlns="http://www.w3.org/2000/svg" width="141.085" height="150.1" viewBox="0 0 141.085 150.1">
  <path id="Icon_awesome-bootstrap" data-name="Icon awesome-bootstrap" d="M92.051,96.038c0,14.21-12.51,13.88-13.83,13.88H52.745V82.551H78.218c13.4,0,13.83,10.689,13.83,13.49Zm-15.794-24.5c.212,0,12.105.334,12.105-12.164,0-5.2-1.1-12.018-12.105-12.018H52.745V71.537Zm64.828-44.261V127.333c-.039,13.8-10.544,24.975-23.514,25.017H23.514C10.544,152.308.039,141.132,0,127.333V27.275C.035,13.473,10.541,2.292,23.514,2.25h94.057c12.973.042,23.479,11.223,23.514,25.025ZM106.47,98.026c0-7.227-2.094-19.529-15.448-22.564v-.246a19.229,19.229,0,0,0,11.758-18.642c0-2.342.63-21.7-24.439-21.7h-40v87.557c40.382,0,44.049.562,51.521-1.914,4.476-1.481,16.6-6.024,16.6-22.488Z" transform="translate(0 -2.25)" fill="#fafafa"/>
</svg>
