<svg id="Capa_1" enable-background="new 0 0 512 512" height="512" viewBox="0 0 512 512" width="512" xmlns="http://www.w3.org/2000/svg" xmlns:xlink="http://www.w3.org/1999/xlink"><linearGradient id="SVGID_1_" gradientUnits="userSpaceOnUse" x1="61.112" x2="492.938" y1="128.416" y2="415.483"><stop offset=".0485" stop-color="#ffdbed"/><stop offset=".9993" stop-color="#d2deff"/></linearGradient><g><path d="m505.626 289.418c-11.826-34.61-38.138-60.16-69.852-72.202-16.43-6.239-27.346-21.856-27.587-39.429-.005-.384-.012-.769-.021-1.154-1.507-64.582-55.488-116.33-120.077-115.221-38.094.654-71.788 19.355-92.905 47.92-18.185 24.599-46.49 39.965-77.08 39.949-.898 0-1.797.009-2.7.029-61.917 1.354-114.567 54.478-115.393 116.404-.879 65.932 52.303 119.654 118.032 119.654 50.947 0 94.349-32.277 110.886-77.497 4.327-11.832 17.152-18.174 29.283-14.772.151.042.303.085.455.126 11.099 3.064 18.458 13.64 17.55 25.119-1.217 15.383.581 31.255 5.798 46.796 20.521 61.135 87.188 94.685 148.493 74.68 62.711-20.464 96.379-88.183 75.118-150.402z" fill="url(#SVGID_1_)"/><g fill="#2626bc"><path d="m323.161 163.044h-134.322c-5.536 0-10.024-4.488-10.024-10.024v-109.277c0-5.536 4.488-10.024 10.024-10.024h134.322c5.536 0 10.024 4.488 10.024 10.024v109.277c0 5.537-4.488 10.024-10.024 10.024z" opacity=".1"/><path d="m308.129 318.129h-104.258c-5.536 0-10.024-4.488-10.024-10.024v-64.181c0-5.536 4.488-10.024 10.024-10.024h104.258c5.536 0 10.024 4.488 10.024 10.024v64.181c0 5.536-4.488 10.024-10.024 10.024z" opacity=".1"/><path d="m470.476 233.9h-47.129v-1.84c0-13.809-11.234-25.043-25.043-25.043h-284.608c-13.809 0-25.043 11.234-25.043 25.043v1.84h-47.129c-5.536 0-10.024 4.488-10.024 10.024v64.181c0 5.536 4.488 10.024 10.024 10.024h104.258c5.536 0 10.024-4.488 10.024-10.024v-64.181c0-5.536-4.488-10.024-10.024-10.024h-47.129v-1.84c0-8.295 6.748-15.043 15.043-15.043h284.608c8.295 0 15.043 6.748 15.043 15.043v1.84h-47.129c-5.536 0-10.024 4.488-10.024 10.024v64.181c0 5.536 4.488 10.024 10.024 10.024h104.258c5.536 0 10.024-4.488 10.024-10.024v-64.181c0-5.536-4.488-10.024-10.024-10.024z" opacity=".1"/></g><path d="m323.161 181.045h-134.322c-5.536 0-10.024-4.488-10.024-10.024v-109.278c0-5.536 4.488-10.024 10.024-10.024h134.322c5.536 0 10.024 4.488 10.024 10.024v109.277c0 5.538-4.488 10.025-10.024 10.025z" fill="#fff"/><path d="m323.161 51.719h-34.161v129.326h34.161c5.536 0 10.024-4.488 10.024-10.024v-109.278c0-5.536-4.488-10.024-10.024-10.024z" fill="#ffdbed"/><path d="m333.185 84.464v-22.721c0-5.536-4.488-10.024-10.024-10.024h-134.322c-5.536 0-10.024 4.488-10.024 10.024v22.721z" fill="#6583fe"/><path d="m268.858 148.64h-58.716c-2.768 0-5.011-2.244-5.011-5.011s2.243-5.011 5.011-5.011h58.716c2.768 0 5.011 2.244 5.011 5.011-.001 2.768-2.244 5.011-5.011 5.011z" fill="#ffa8cf"/><path d="m241.794 127.836h-31.651c-2.768 0-5.011-2.244-5.011-5.011s2.243-5.011 5.011-5.011h31.651c2.768 0 5.011 2.244 5.011 5.011s-2.244 5.011-5.011 5.011z" fill="#ff7eb8"/><path d="m145.782 336.129h-104.258c-5.536 0-10.024-4.488-10.024-10.024v-64.181c0-5.536 4.488-10.024 10.024-10.024h104.258c5.536 0 10.024 4.488 10.024 10.024v64.181c0 5.536-4.488 10.024-10.024 10.024z" fill="#fff"/><path d="m145.782 336.129h-104.258c-5.536 0-10.024-4.488-10.024-10.024v-64.181c0-5.536 4.488-10.024 10.024-10.024h104.258c5.536 0 10.024 4.488 10.024 10.024v64.181c0 5.536-4.488 10.024-10.024 10.024z" fill="#fff"/><path d="m155.806 284.645v-22.721c0-5.536-4.488-10.024-10.024-10.024h-104.258c-5.536 0-10.024 4.488-10.024 10.024v22.721z" fill="#97ffd2"/><path d="m124.479 313.543h-61.652c-2.768 0-5.011-2.244-5.011-5.011s2.243-5.011 5.011-5.011h61.651c2.768 0 5.011 2.244 5.011 5.011s-2.243 5.011-5.01 5.011z" fill="#02ffb3"/><path d="m308.129 336.129h-104.258c-5.536 0-10.024-4.488-10.024-10.024v-64.181c0-5.536 4.488-10.024 10.024-10.024h104.258c5.536 0 10.024 4.488 10.024 10.024v64.181c0 5.536-4.488 10.024-10.024 10.024z" fill="#fff"/><path d="m318.153 284.645v-22.721c0-5.536-4.488-10.024-10.024-10.024h-104.258c-5.536 0-10.024 4.488-10.024 10.024v22.721z" fill="#97ffd2"/><path d="m286.826 313.543h-61.651c-2.768 0-5.011-2.244-5.011-5.011s2.243-5.011 5.011-5.011h61.651c2.768 0 5.011 2.244 5.011 5.011s-2.244 5.011-5.011 5.011z" fill="#02ffb3"/><path d="m470.476 336.129h-104.258c-5.536 0-10.024-4.488-10.024-10.024v-64.181c0-5.536 4.488-10.024 10.024-10.024h104.258c5.536 0 10.024 4.488 10.024 10.024v64.181c0 5.536-4.488 10.024-10.024 10.024z" fill="#fff"/><path d="m480.5 284.645v-22.721c0-5.536-4.488-10.024-10.024-10.024h-104.258c-5.536 0-10.024 4.488-10.024 10.024v22.721z" fill="#97ffd2"/><path d="m449.173 313.543h-61.651c-2.768 0-5.011-2.244-5.011-5.011s2.243-5.011 5.011-5.011h61.651c2.768 0 5.011 2.244 5.011 5.011s-2.244 5.011-5.011 5.011z" fill="#02ffb3"/><path d="m395.315 371.053h-47.129v-1.841c0-13.809-11.234-25.043-25.043-25.043h-134.287c-13.809 0-25.043 11.234-25.043 25.043v1.841h-47.129c-5.536 0-10.024 4.488-10.024 10.024v64.181c0 5.536 4.488 10.024 10.024 10.024h104.258c5.536 0 10.024-4.488 10.024-10.024v-64.181c0-5.536-4.488-10.024-10.024-10.024h-47.129v-1.841c0-8.295 6.748-15.043 15.043-15.043h134.287c8.295 0 15.043 6.748 15.043 15.043v1.841h-47.129c-5.536 0-10.024 4.488-10.024 10.024v64.181c0 5.536 4.488 10.024 10.024 10.024h104.258c5.536 0 10.024-4.488 10.024-10.024v-64.181c0-5.536-4.488-10.024-10.024-10.024z" fill="#2626bc" opacity=".1"/><path d="m220.942 473.282h-104.257c-5.536 0-10.024-4.488-10.024-10.024v-64.181c0-5.536 4.488-10.024 10.024-10.024h104.258c5.536 0 10.024 4.488 10.024 10.024v64.181c0 5.536-4.488 10.024-10.025 10.024z" fill="#fff"/><path d="m230.967 421.798v-22.721c0-5.536-4.488-10.024-10.024-10.024h-104.258c-5.536 0-10.024 4.488-10.024 10.024v22.721z" fill="#ffa8cf"/><path d="m199.639 450.696h-61.651c-2.768 0-5.011-2.244-5.011-5.011s2.243-5.011 5.011-5.011h61.651c2.768 0 5.011 2.244 5.011 5.011s-2.243 5.011-5.011 5.011z" fill="#ff7eb8"/><path d="m395.315 473.282h-104.258c-5.536 0-10.024-4.488-10.024-10.024v-64.181c0-5.536 4.488-10.024 10.024-10.024h104.258c5.536 0 10.024 4.488 10.024 10.024v64.181c0 5.536-4.488 10.024-10.024 10.024z" fill="#fff"/><path d="m405.339 421.798v-22.721c0-5.536-4.488-10.024-10.024-10.024h-104.257c-5.536 0-10.024 4.488-10.024 10.024v22.721z" fill="#ffa8cf"/><path d="m374.012 450.696h-61.651c-2.768 0-5.011-2.244-5.011-5.011s2.243-5.011 5.011-5.011h61.651c2.768 0 5.011 2.244 5.011 5.011s-2.243 5.011-5.011 5.011z" fill="#ff7eb8"/><path d="m470.476 246.9h-47.133c-.087-13.735-11.284-24.883-25.039-24.883h-137.304v-35.971h62.161c8.284 0 15.023-6.74 15.023-15.024v-58.957c0-2.761-2.238-5-5-5s-5 2.239-5 5v58.957c0 2.77-2.254 5.024-5.023 5.024h-134.322c-2.77 0-5.024-2.254-5.024-5.024v-81.558h149.37c2.762 0 5-2.239 5-5v-22.721c0-8.284-6.739-15.024-15.023-15.024h-134.323c-8.284 0-15.024 6.74-15.024 15.024v109.277c0 8.284 6.74 15.024 15.024 15.024h62.161v35.971h-137.304c-13.755 0-24.952 11.148-25.039 24.883h-47.133c-8.284 0-15.024 6.74-15.024 15.024v64.181c0 8.284 6.74 15.024 15.024 15.024h104.258c8.284 0 15.024-6.74 15.024-15.024v-64.181c0-8.284-6.74-15.024-15.024-15.024h-47.121c.087-8.221 6.794-14.883 15.035-14.883h137.304v14.883h-47.129c-8.284 0-15.024 6.74-15.024 15.024v64.181c0 8.284 6.74 15.024 15.024 15.024h47.129v18.041h-62.144c-13.755 0-24.952 11.148-25.039 24.883h-47.133c-8.284 0-15.024 6.74-15.024 15.024v64.181c0 8.284 6.74 15.024 15.024 15.024h104.258c8.284 0 15.024-6.74 15.024-15.024v-64.181c0-8.285-6.74-15.024-15.024-15.024h-47.121c.087-8.221 6.794-14.883 15.035-14.883h134.287c8.241 0 14.948 6.662 15.035 14.883h-47.121c-8.284 0-15.024 6.74-15.024 15.024v64.181c0 8.284 6.74 15.024 15.024 15.024h104.258c8.284 0 15.023-6.74 15.023-15.024v-64.181c0-8.285-6.739-15.024-15.023-15.024h-47.133c-.087-13.735-11.284-24.883-25.039-24.883h-62.143v-18.041h47.129c8.284 0 15.024-6.74 15.024-15.024v-64.181c0-8.284-6.74-15.024-15.024-15.024h-47.129v-14.883h137.304c8.241 0 14.948 6.662 15.035 14.883h-47.121c-8.284 0-15.023 6.74-15.023 15.024v64.181c0 8.284 6.739 15.024 15.023 15.024h104.258c8.284 0 15.024-6.74 15.024-15.024v-64.181c0-8.282-6.74-15.022-15.024-15.022zm-286.661-185.157c0-2.77 2.254-5.024 5.024-5.024h134.322c2.77 0 5.023 2.254 5.023 5.024v17.721h-144.37v-17.721zm-38.033 269.386h-104.258c-2.77 0-5.024-2.254-5.024-5.024v-36.46h114.306v36.46c0 2.77-2.254 5.024-5.024 5.024zm5.024-69.205v17.721h-114.306v-17.721c0-2.77 2.254-5.024 5.024-5.024h104.258c2.77 0 5.024 2.254 5.024 5.024zm75.16 137.153v64.181c0 2.77-2.254 5.024-5.024 5.024h-104.257c-2.77 0-5.024-2.254-5.024-5.024v-36.46h91.707c2.761 0 5-2.239 5-5s-2.239-5-5-5h-91.707v-17.721c0-2.771 2.254-5.024 5.024-5.024h104.258c2.769 0 5.023 2.254 5.023 5.024zm169.349 69.205h-104.257c-2.771 0-5.024-2.254-5.024-5.024v-36.46h114.306v36.46c-.001 2.77-2.255 5.024-5.025 5.024zm5.024-69.205v17.721h-114.306v-17.721c0-2.771 2.254-5.024 5.024-5.024h104.258c2.77 0 5.024 2.254 5.024 5.024zm-92.21-67.948h-104.258c-2.77 0-5.024-2.254-5.024-5.024v-36.46h114.306v36.46c0 2.77-2.254 5.024-5.024 5.024zm5.024-69.205v17.721h-114.306v-17.721c0-2.77 2.254-5.024 5.024-5.024h104.258c2.77 0 5.024 2.254 5.024 5.024zm53.065-5.024h104.258c2.771 0 5.024 2.254 5.024 5.024v17.721h-114.306v-17.721c0-2.77 2.254-5.024 5.024-5.024zm104.258 74.229h-104.258c-2.77 0-5.023-2.254-5.023-5.024v-36.46h114.305v36.46c0 2.77-2.254 5.024-5.024 5.024z" fill="#2626bc"/><path d="m129.489 134.151c-2.761 0-5-2.239-5-5 0-3.321-2.702-6.023-6.023-6.023-2.761 0-5-2.239-5-5s2.239-5 5-5c3.321 0 6.023-2.702 6.023-6.024 0-2.761 2.239-5 5-5s5 2.239 5 5c0 3.322 2.702 6.024 6.023 6.024 2.761 0 5 2.239 5 5s-2.239 5-5 5c-3.321 0-6.023 2.702-6.023 6.023 0 2.761-2.239 5-5 5z" fill="#6583fe"/><path d="m445.999 399.503c-2.762 0-5-2.239-5-5 0-3.321-2.702-6.023-6.024-6.023-2.762 0-5-2.239-5-5s2.238-5 5-5c3.322 0 6.024-2.702 6.024-6.024 0-2.761 2.238-5 5-5s5 2.239 5 5c0 3.322 2.702 6.024 6.023 6.024 2.762 0 5 2.239 5 5s-2.238 5-5 5c-3.321 0-6.023 2.702-6.023 6.023 0 2.761-2.238 5-5 5z" fill="#ff7eb8"/><path d="m371.487 202.745c-1.279 0-2.56-.488-3.535-1.464l-11.023-11.023c-1.953-1.953-1.953-5.119 0-7.071l11.023-11.023c1.951-1.952 5.119-1.952 7.07 0l11.023 11.023c1.953 1.953 1.953 5.119 0 7.071l-11.023 11.023c-.975.975-2.255 1.464-3.535 1.464zm-3.952-16.024 3.952 3.952 3.952-3.952-3.952-3.952z" fill="#ff7eb8"/><g fill="#97ffd2"><path d="m68.84 437.822c-1.28 0-2.559-.488-3.536-1.464l-11.024-11.023c-.938-.938-1.464-2.209-1.464-3.536s.527-2.598 1.464-3.536l11.024-11.024c.938-.938 2.209-1.464 3.536-1.464 1.326 0 2.598.527 3.536 1.464l11.023 11.024c1.953 1.953 1.953 5.119 0 7.071l-11.023 11.023c-.977.976-2.256 1.465-3.536 1.465zm-3.952-16.024 3.953 3.953 3.953-3.953-3.953-3.953z"/><circle cx="289" cy="117.814" r="14.093"/></g></g></svg>