<svg id="Capa_1" enable-background="new 0 0 512 512" height="512" viewBox="0 0 512 512" width="512" xmlns="http://www.w3.org/2000/svg" xmlns:xlink="http://www.w3.org/1999/xlink"><linearGradient id="SVGID_1_" gradientUnits="userSpaceOnUse" x1="28.984" x2="502.522" y1="124.552" y2="414.073"><stop offset=".0485" stop-color="#ffdbed"/><stop offset=".9993" stop-color="#d2deff"/></linearGradient><g><path d="m408.229 154.262c-23.697-9.236-43.717-26.089-55.961-48.381-20.59-37.487-60.43-62.898-106.221-62.898-47.53 0-88.646 27.377-108.477 67.219-12.146 24.401-32.814 43.56-58.09 53.761-37.349 15.074-68.703 49.524-78.653 103.382-1.092 5.91-1.108 11.986-.016 17.896 15.448 83.572 82.399 120.435 143.334 110.66 34.126-5.474 68.672 5.909 93.967 29.462 51.434 47.892 133.884 62.907 213.923 11.57 9.377-6.014 21.957-18.634 27.966-28.015 68.966-107.67 17.879-219.714-71.772-254.656z" fill="url(#SVGID_1_)"/><path d="m456.001 103.769v254.25c0 8.28-6.72 15-15 15h-370c-8.28 0-15-6.72-15-15v-254.25c0-8.28 6.72-15 15-15h370c8.28 0 15 6.72 15 15z" fill="#2626bc" opacity=".1"/><path d="m312.711 466.726h-113.421l22.682-89.905h68.057z" fill="#9fb0fe"/><path d="m297.929 408.123h-83.857l7.9-31.302h68.057z" fill="#8399fe"/><path d="m456.001 124.772v254.25c0 8.28-6.72 15-15 15h-370c-8.28 0-15-6.72-15-15v-254.25c0-8.28 6.72-15 15-15h370c8.28 0 15 6.72 15 15z" fill="#fff"/><path d="m428.001 343.629h-214v-153.936c0-1.657 1.343-3 3-3h208c1.657 0 3 1.343 3 3z" fill="#d2deff"/><path d="m428.001 207.801h-214v-18.107c0-1.657 1.343-3 3-3h208c1.657 0 3 1.343 3 3z" fill="#02ffb3"/><path d="m456.001 157.943v-33.171c0-8.284-6.716-15-15-15h-370c-8.284 0-15 6.716-15 15v33.171z" fill="#ff7eb8"/><path d="m56.001 343.629v35.39c0 8.284 6.716 15 15 15h370c8.284 0 15-6.716 15-15v-35.39z" fill="#b7c5ff"/><g fill="#2626bc"><path d="m94.083 128.785c-2.761 0-5 2.238-5 5v.145c0 2.762 2.239 5 5 5s5-2.238 5-5v-.145c0-2.762-2.239-5-5-5z"/><path d="m113.408 128.785c-2.761 0-5 2.238-5 5v.145c0 2.762 2.239 5 5 5s5-2.238 5-5v-.145c0-2.762-2.239-5-5-5z"/><path d="m132.732 128.785c-2.761 0-5 2.238-5 5v.145c0 2.762 2.239 5 5 5s5-2.238 5-5v-.145c0-2.762-2.238-5-5-5z"/><path d="m441.001 104.771h-370c-11.028 0-20 8.972-20 20v33.172c0 2.762 2.239 5 5 5h395v175.686h-390v-153.146c0-2.762-2.239-5-5-5s-5 2.238-5 5v193.535c0 11.028 8.972 20 20 20h140.214l-15.82 62.701h-15.328c-2.761 0-5 2.238-5 5s2.239 5 5 5h19.223c2.291 0 4.288-1.556 4.848-3.776l17.39-68.925h68.944l15.818 62.701-79.46.006c-2.761 0-5 2.238-5 5s2.239 5 5 5l105.104-.006c2.761 0 5-2.238 5-5s-2.239-5-5-5h-15.331l-15.818-62.701h140.216c11.028 0 20-8.972 20-20v-254.247c0-11.028-8.972-20-20-20zm-380 48.172v-28.172c0-5.514 4.486-10 10-10h370c5.514 0 10 4.486 10 10v28.172zm380 236.076h-370c-5.514 0-10-4.486-10-10v-30.39h390v30.39c0 5.513-4.486 10-10 10z"/></g><ellipse cx="143.067" cy="226.332" fill="#02ffb3" rx="40.143" ry="40.143" transform="matrix(.16 -.987 .987 .16 -103.259 331.297)"/><path d="m159.68 220.525c0-9.16-7.453-16.612-16.613-16.612s-16.613 7.452-16.613 16.612c0 4.518 1.818 8.615 4.755 11.613-2.936 2.998-4.755 7.096-4.755 11.613 0 2.762 2.239 5 5 5s5-2.238 5-5c0-3.646 2.966-6.613 6.613-6.613s6.613 2.967 6.613 6.613c0 2.762 2.239 5 5 5s5-2.238 5-5c0-4.518-1.818-8.615-4.755-11.613 2.937-2.997 4.755-7.095 4.755-11.613zm-16.613-6.612c3.646 0 6.613 2.966 6.613 6.612s-2.967 6.613-6.613 6.613-6.613-2.967-6.613-6.613 2.966-6.612 6.613-6.612z" fill="#fff"/><path d="m385.328 256.31h-128.654c-7.828 0-14.173-6.346-14.173-14.173 0-7.828 6.346-14.173 14.173-14.173h128.654c7.828 0 14.173 6.346 14.173 14.173s-6.346 14.173-14.173 14.173z" fill="#fff"/><g fill="#6583fe"><circle cx="304.09" cy="242.353" r="5.59"/><circle cx="321.001" cy="242.353" r="5.59"/><path d="m337.912 236.763c3.087 0 5.59 2.503 5.59 5.59s-2.503 5.59-5.59 5.59-5.59-2.503-5.59-5.59 2.502-5.59 5.59-5.59z"/></g><path d="m385.328 295.81h-128.654c-7.828 0-14.173-6.346-14.173-14.173 0-7.828 6.346-14.173 14.173-14.173h128.654c7.828 0 14.173 6.346 14.173 14.173s-6.346 14.173-14.173 14.173z" fill="#fff"/><circle cx="304.09" cy="281.853" fill="#6583fe" r="5.59"/><circle cx="321.001" cy="281.853" fill="#6583fe" r="5.59"/><path d="m337.912 276.263c3.087 0 5.59 2.503 5.59 5.59s-2.503 5.59-5.59 5.59-5.59-2.503-5.59-5.59 2.502-5.59 5.59-5.59z" fill="#6583fe"/><path d="m340.895 325.64h-39.574c-1.657 0-3-1.343-3-3v-11.5c0-1.657 1.343-3 3-3h39.574c1.657 0 3 1.343 3 3v11.5c0 1.657-1.343 3-3 3z" fill="#ff7eb8"/><path d="m176.36 292.098h-66.586c-2.829 0-5.123-2.294-5.123-5.123s2.293-5.123 5.123-5.123h66.586c2.829 0 5.123 2.294 5.123 5.123s-2.294 5.123-5.123 5.123z" fill="#b7c5ff"/><path d="m158.36 311.098h-30.586c-2.829 0-5.123-2.294-5.123-5.123s2.293-5.123 5.123-5.123h30.586c2.829 0 5.123 2.294 5.123 5.123s-2.294 5.123-5.123 5.123z" fill="#6583fe"/><path d="m374.212 453.376c-1.28 0-2.559-.488-3.536-1.465l-10.994-10.994c-1.953-1.952-1.953-5.118 0-7.07l10.994-10.994c1.953-1.953 5.118-1.953 7.071 0l10.994 10.994c1.953 1.952 1.953 5.118 0 7.07l-10.994 10.994c-.976.977-2.255 1.465-3.535 1.465zm-3.923-15.994 3.923 3.923 3.923-3.923-3.923-3.923z" fill="#ff7eb8"/><path d="m131.454 95.439c-1.28 0-2.559-.488-3.536-1.465l-10.994-10.994c-1.953-1.952-1.953-5.118 0-7.07l10.994-10.994c1.953-1.953 5.118-1.953 7.071 0l10.994 10.994c1.953 1.952 1.953 5.118 0 7.07l-10.994 10.994c-.976.977-2.255 1.465-3.535 1.465zm-3.923-15.994 3.923 3.923 3.923-3.923-3.923-3.923z" fill="#ff7eb8"/><path d="m181.482 72.263c-1.28 0-2.559-.488-3.536-1.465l-10.994-10.994c-1.953-1.952-1.953-5.118 0-7.07l10.994-10.994c1.953-1.953 5.118-1.953 7.071 0l10.994 10.994c1.953 1.952 1.953 5.118 0 7.07l-10.994 10.994c-.975.976-2.255 1.465-3.535 1.465zm-3.922-15.994 3.923 3.923 3.923-3.923-3.923-3.923z" fill="#6583fe"/><path d="m410.519 77.765c-2.761 0-5-2.238-5-5 0-3.318-2.7-6.018-6.018-6.018-2.761 0-5-2.238-5-5s2.239-5 5-5c3.318 0 6.018-2.699 6.018-6.018 0-2.762 2.239-5 5-5s5 2.238 5 5c0 3.318 2.7 6.018 6.018 6.018 2.761 0 5 2.238 5 5s-2.239 5-5 5c-3.318 0-6.018 2.699-6.018 6.018 0 2.761-2.239 5-5 5z" fill="#97ffd2"/></g></svg>