<svg id="Capa_1" enable-background="new 0 0 512 512" height="512" viewBox="0 0 512 512" width="512" xmlns="http://www.w3.org/2000/svg" xmlns:xlink="http://www.w3.org/1999/xlink"><linearGradient id="SVGID_1_" gradientUnits="userSpaceOnUse" x1="-19.551" x2="532.718" y1="265.015" y2="247.689"><stop offset=".0485" stop-color="#d2deff"/><stop offset=".9993" stop-color="#dcfdee"/></linearGradient><g><path d="m482.969 141.223c-34.945-35.948-89.48-40.907-129.831-14.878-11.48 7.405-25.381 9.888-38.717 6.927-31.565-7.009-64.584-2.222-92.707 13.042-18.907 10.261-41.936 8.477-59.579-3.83-11.712-8.169-25.312-14.023-40.257-16.777-55.438-10.217-109.337 26.553-119.994 81.907-10.899 56.609 26.628 111.012 83.196 121.089 13.821 2.462 27.488 2.047 40.388-.816 20.936-4.646 42.81 3.122 56.321 19.776 8.528 10.512 18.812 19.894 30.757 27.689 61.731 40.28 144.427 22.89 184.707-38.84.043-.065.085-.131.128-.196 7.377-11.349 18.851-19.44 32.12-22.119 19.353-3.907 37.801-13.404 52.756-28.495 39.373-39.732 39.701-104.371.712-144.479z" fill="url(#SVGID_1_)"/><path d="m322.492 28.541c-1.841-.05-3.372 1.406-3.372 3.248v27.912c-.001 0-.002 0-.002 0-24.934 0-47.505 10.115-63.835 26.466h-168.778c-8.283 0-15.005 6.712-15.005 14.995v344.292c0 8.282 6.722 15.005 15.005 15.005h220.021c8.283 0 15.005-6.722 15.005-15.005v-205.347c48.711-1.279 87.806-41.167 87.806-90.187 0 0 0 0 0-.001h27.913c1.842 0 3.298-1.531 3.248-3.372-1.755-64.378-53.627-116.25-118.006-118.006z" fill="#2626bc" opacity=".1"/><path d="m321.531 119.168v344.292c0 8.282-6.722 15.005-15.005 15.005h-220.021c-8.283 0-15.005-6.722-15.005-15.005v-344.292c0-8.283 6.722-14.995 15.005-14.995h220.021c8.283 0 15.005 6.712 15.005 14.995z" fill="#fff"/><path d="m321.531 326.545v90.529c-24.288-.82-43.734-20.767-43.734-45.265 0-24.497 19.446-44.444 43.734-45.264z" fill="#d2deff"/><path d="m321.531 119.168v152.079c-.8.02-1.601.03-2.411.03-49.826 0-90.219-40.393-90.219-90.219 0-32.521 17.206-61.02 43.014-76.885h34.611c8.283 0 15.005 6.712 15.005 14.995z" fill="#d2deff"/><g fill="#97ffd2"><path d="m153.788 478.463h-56.618v-40.544c0-1.657 1.344-3.001 3.001-3.001h50.616c1.657 0 3.001 1.344 3.001 3.001z"/><path d="m224.824 478.463h-56.618v-40.544c0-1.657 1.344-3.001 3.001-3.001h50.616c1.657 0 3.001 1.344 3.001 3.001z"/><path d="m295.86 478.463h-56.618v-40.544c0-1.657 1.344-3.001 3.001-3.001h50.616c1.657 0 3.001 1.344 3.001 3.001z"/></g><path d="m321.529 152.346v-33.175c0-8.285-6.717-15.002-15.002-15.002h-220.025c-8.285 0-15.002 6.717-15.002 15.002v33.175z" fill="#6583fe"/><path d="m220.897 316h16.002c1.657 0 3-1.343 3-3v-60.873c0-1.657-1.343-3-3-3h-16.002c-1.657 0-3 1.343-3 3v60.873c0 1.656 1.343 3 3 3z" fill="#02ffb3"/><path d="m253.613 316h16.002c1.657 0 3-1.343 3-3v-37.662c0-1.657-1.343-3-3-3h-16.002c-1.657 0-3 1.343-3 3v37.662c0 1.656 1.343 3 3 3z" fill="#97ffd2"/><path d="m188.18 316h16.002c1.657 0 3-1.343 3-3v-78.35c0-1.657-1.343-3-3-3h-16.002c-1.657 0-3 1.343-3 3v78.349c0 1.657 1.343 3.001 3 3.001z" fill="#ffa8cf"/><path d="m155.464 316h16.002c1.657 0 3-1.343 3-3v-96.877c0-1.657-1.343-3-3-3h-16.002c-1.657 0-3 1.343-3 3v96.877c0 1.656 1.343 3 3 3z" fill="#ff7eb8"/><path d="m122.747 316h16.002c1.657 0 3-1.343 3-3v-114.354c0-1.657-1.343-3-3-3h-16.002c-1.657 0-3 1.343-3 3v114.353c0 1.657 1.343 3.001 3 3.001z" fill="#ff5ba8"/><path d="m148.779 383.418h-46.601c-2.767 0-5.009-2.243-5.009-5.009s2.242-5.009 5.009-5.009h46.601c2.767 0 5.009 2.243 5.009 5.009s-2.242 5.009-5.009 5.009z" fill="#b7c5ff"/><path d="m148.779 356.625h-46.601c-2.767 0-5.009-2.243-5.009-5.009s2.242-5.009 5.009-5.009h46.601c2.767 0 5.009 2.243 5.009 5.009 0 2.767-2.242 5.009-5.009 5.009z" fill="#ff7eb8"/><path d="m148.779 401.209h-46.601c-2.767 0-5.009-2.243-5.009-5.009s2.242-5.009 5.009-5.009h46.601c2.767 0 5.009 2.243 5.009 5.009s-2.242 5.009-5.009 5.009z" fill="#b7c5ff"/><path d="m148.779 419h-46.601c-2.767 0-5.009-2.243-5.009-5.009s2.242-5.009 5.009-5.009h46.601c2.767 0 5.009 2.243 5.009 5.009s-2.242 5.009-5.009 5.009z" fill="#b7c5ff"/><path d="m219.482 383.418h-46.601c-2.767 0-5.009-2.243-5.009-5.009s2.242-5.009 5.009-5.009h46.601c2.767 0 5.009 2.243 5.009 5.009-.001 2.766-2.243 5.009-5.009 5.009z" fill="#b7c5ff"/><path d="m219.482 356.625h-46.601c-2.767 0-5.009-2.243-5.009-5.009s2.242-5.009 5.009-5.009h46.601c2.767 0 5.009 2.243 5.009 5.009-.001 2.767-2.243 5.009-5.009 5.009z" fill="#02ffb3"/><path d="m219.482 401.209h-46.601c-2.767 0-5.009-2.243-5.009-5.009s2.242-5.009 5.009-5.009h46.601c2.767 0 5.009 2.243 5.009 5.009s-2.243 5.009-5.009 5.009z" fill="#b7c5ff"/><path d="m219.482 419h-46.601c-2.767 0-5.009-2.243-5.009-5.009s2.242-5.009 5.009-5.009h46.601c2.767 0 5.009 2.243 5.009 5.009-.001 2.766-2.243 5.009-5.009 5.009z" fill="#b7c5ff"/><path d="m290.184 383.418h-46.601c-2.767 0-5.009-2.243-5.009-5.009s2.242-5.009 5.009-5.009h46.601c2.767 0 5.009 2.243 5.009 5.009s-2.242 5.009-5.009 5.009z" fill="#b7c5ff"/><path d="m290.184 356.625h-46.601c-2.767 0-5.009-2.243-5.009-5.009s2.242-5.009 5.009-5.009h46.601c2.767 0 5.009 2.243 5.009 5.009 0 2.767-2.242 5.009-5.009 5.009z" fill="#97ffd2"/><path d="m290.184 401.209h-46.601c-2.767 0-5.009-2.243-5.009-5.009s2.242-5.009 5.009-5.009h46.601c2.767 0 5.009 2.243 5.009 5.009s-2.242 5.009-5.009 5.009z" fill="#b7c5ff"/><path d="m290.184 419h-46.601c-2.767 0-5.009-2.243-5.009-5.009s2.242-5.009 5.009-5.009h46.601c2.767 0 5.009 2.243 5.009 5.009s-2.242 5.009-5.009 5.009z" fill="#b7c5ff"/><circle cx="319.117" cy="167.926" fill="#97ffd2" r="90.22"/><path d="m409.339 167.922c0 4.802-.37 9.513-1.1 14.115h-85.868c-1.801 0-3.251-1.45-3.251-3.241v-101.093c49.826 0 90.219 40.393 90.219 90.219z" fill="#02ffb3"/><path d="m437.25 167.926h-114.882c-1.794 0-3.248-1.454-3.248-3.248v-114.883c0-1.842 1.53-3.299 3.372-3.248 64.379 1.756 116.251 53.628 118.007 118.007.05 1.841-1.407 3.372-3.249 3.372z" fill="#ff7eb8"/><path d="m358.313 147.739h-5.333c-6.509 0-11.805-5.296-11.805-11.805v-16.462c0-6.509 5.296-11.805 11.805-11.805h5.333c6.509 0 11.805 5.296 11.805 11.805v16.462c-.001 6.51-5.297 11.805-11.805 11.805zm-5.334-30.071c-.995 0-1.805.81-1.805 1.805v16.462c0 .995.81 1.805 1.805 1.805h5.333c.995 0 1.805-.81 1.805-1.805v-16.462c0-.995-.81-1.805-1.805-1.805z" fill="#fff"/><path d="m387.139 147.739c-2.762 0-5-2.238-5-5v-25.071h-.446c-2.762 0-5-2.238-5-5s2.238-5 5-5h5.446c2.762 0 5 2.238 5 5v30.071c0 2.762-2.239 5-5 5z" fill="#fff"/><path d="m302.262 227.672h-5.333c-6.509 0-11.805-5.296-11.805-11.805v-16.463c0-6.509 5.296-11.805 11.805-11.805h5.333c6.509 0 11.805 5.296 11.805 11.805v16.463c-.001 6.509-5.296 11.805-11.805 11.805zm-5.333-30.072c-.995 0-1.805.81-1.805 1.805v16.463c0 .995.81 1.805 1.805 1.805h5.333c.995 0 1.805-.81 1.805-1.805v-16.463c0-.995-.81-1.805-1.805-1.805z" fill="#01eca5"/><path d="m343.756 227.232h-18.114c-2.122 0-4.012-1.34-4.716-3.341s-.068-4.229 1.586-5.559c5.044-4.051 12.85-11.456 14.411-15.234.601-1.452.506-3.053-.247-4.179-.585-.875-1.456-1.319-2.589-1.319-1.899 0-3.445 1.546-3.445 3.445 0 2.762-2.238 5-5 5s-5-2.238-5-5c0-7.414 6.031-13.445 13.445-13.445 4.48 0 8.454 2.1 10.902 5.761 2.623 3.924 3.063 8.992 1.176 13.558-1.354 3.276-4.401 7.001-7.599 10.313h5.189c2.762 0 5 2.238 5 5s-2.237 5-4.999 5z" fill="#01eca5"/><ellipse cx="323.096" cy="360.472" fill="#ff7eb8" rx="45.294" ry="45.294" transform="matrix(.114 -.994 .994 .114 -71.721 640.563)"/><g fill="#2626bc"><path d="m109.586 123.185c-2.762 0-5 2.238-5 5v.146c0 2.762 2.238 5 5 5s5-2.238 5-5v-.146c0-2.762-2.238-5-5-5z"/><path d="m128.913 123.185c-2.762 0-5 2.238-5 5v.146c0 2.762 2.238 5 5 5s5-2.238 5-5v-.146c0-2.762-2.238-5-5-5z"/><path d="m148.24 123.185c-2.762 0-5 2.238-5 5v.146c0 2.762 2.238 5 5 5s5-2.238 5-5v-.146c0-2.762-2.238-5-5-5z"/><path d="m322.627 41.549c-2.246-.074-4.423.794-6.016 2.346-1.606 1.563-2.491 3.659-2.491 5.9v23.069c-22.916 1.184-44.341 10.461-60.894 26.354-.159-.015-.313-.048-.476-.048h-166.248c-11.029 0-20.002 8.973-20.002 20.002v33.175c0 2.762 2.238 5 5 5h153c-.385 3.492-.602 7.021-.602 10.581 0 51.638 41.32 93.806 92.632 95.182v47.511c-24.639 3.229-43.728 24.345-43.728 49.851s19.089 46.622 43.728 49.851v53.135c0 5.515-4.487 10.002-10.002 10.002h-220.026c-5.515 0-10.002-4.487-10.002-10.002v-283.568c0-2.762-2.238-5-5-5s-5 2.238-5 5v283.568c0 11.029 8.973 20.002 20.002 20.002h220.025c11.029 0 20.002-8.973 20.002-20.002v-52.823c26.135-1.772 46.86-23.586 46.86-50.164s-20.725-48.391-46.86-50.164v-47.449c47.409-3.667 85.196-42.206 87.677-89.933h23.044c2.242 0 4.338-.885 5.901-2.491 1.551-1.594 2.406-3.786 2.346-6.018-1.829-67.067-55.8-121.038-122.87-122.867zm-246.127 105.797v-28.175c0-5.515 4.487-10.002 10.002-10.002h157.695c-8.872 11.276-14.996 24.287-18.048 38.177zm286.89 213.126c0 22.218-18.076 40.294-40.294 40.294s-40.294-18.076-40.294-40.294 18.076-40.294 40.294-40.294 40.294 18.076 40.294 40.294zm45.947-197.546c-2.762 0-5 2.238-5 5 0 46.99-38.229 85.219-85.22 85.219s-85.22-38.229-85.22-85.219c0-22.333 8.578-43.443 24.153-59.441 14.954-15.361 34.785-24.382 56.069-25.611v81.803c0 4.548 3.699 8.248 8.247 8.248h59.421c2.762 0 5-2.238 5-5s-2.238-5-5-5h-57.667v-111.318c60.356 2.546 108.773 50.964 111.319 111.319z"/></g><path d="m339.699 352.247c0-9.155-7.448-16.604-16.604-16.604s-16.604 7.448-16.604 16.604c0 4.514 1.816 8.607 4.749 11.604-2.933 2.996-4.749 7.089-4.749 11.603 0 2.762 2.238 5 5 5s5-2.238 5-5c0-3.641 2.962-6.603 6.604-6.603s6.604 2.962 6.604 6.603c0 2.762 2.238 5 5 5s5-2.238 5-5c0-4.513-1.816-8.607-4.749-11.603 2.933-2.996 4.749-7.09 4.749-11.604zm-16.603-6.603c3.642 0 6.604 2.962 6.604 6.604s-2.962 6.604-6.604 6.604-6.604-2.962-6.604-6.604 2.962-6.604 6.604-6.604z" fill="#fff"/><path d="m413.359 278.489c-1.279 0-2.56-.488-3.535-1.465l-10.984-10.984c-1.953-1.952-1.953-5.118 0-7.07l10.984-10.984c1.951-1.953 5.119-1.953 7.07 0l10.984 10.984c1.953 1.952 1.953 5.118 0 7.07l-10.984 10.984c-.975.977-2.255 1.465-3.535 1.465zm-3.913-15.984 3.913 3.913 3.913-3.913-3.913-3.913z" fill="#ff7eb8"/><path d="m245.016 76.388c-1.279 0-2.56-.488-3.535-1.465l-10.984-10.984c-1.953-1.952-1.953-5.118-.001-7.07l10.984-10.985c.938-.938 2.21-1.465 3.536-1.465s2.598.526 3.536 1.465l10.984 10.985c1.952 1.952 1.952 5.118-.001 7.07l-10.984 10.984c-.976.977-2.256 1.465-3.535 1.465zm-3.913-15.984 3.913 3.913 3.913-3.913-3.913-3.914z" fill="#ff7eb8"/><path d="m384.693 318.762c-2.762 0-5-2.238-5-5 0-3.318-2.7-6.019-6.02-6.019-2.762 0-5-2.238-5-5s2.238-5 5-5c3.319 0 6.02-2.7 6.02-6.02 0-2.762 2.238-5 5-5s5 2.238 5 5c0 3.319 2.7 6.02 6.02 6.02 2.762 0 5 2.238 5 5s-2.238 5-5 5c-3.319 0-6.02 2.7-6.02 6.019 0 2.762-2.238 5-5 5z" fill="#6583fe"/><path d="m364.229 450.937c-2.762 0-5-2.238-5-5 0-3.319-2.7-6.02-6.02-6.02-2.762 0-5-2.238-5-5s2.238-5 5-5c3.319 0 6.02-2.7 6.02-6.019 0-2.762 2.238-5 5-5s5 2.238 5 5c0 3.318 2.7 6.019 6.02 6.019 2.762 0 5 2.238 5 5s-2.238 5-5 5c-3.319 0-6.02 2.7-6.02 6.02 0 2.761-2.238 5-5 5z" fill="#97ffd2"/></g></svg>